<?xml version="1.0" encoding="UTF-8"?>
<svg id="Layer_1" data-name="Layer 1" xmlns="http://www.w3.org/2000/svg" viewBox="0 0 495.99 431.74">
  <defs>
    <style>
      .cls-1, .cls-2, .cls-3, .cls-4, .cls-5, .cls-6, .cls-7, .cls-8, .cls-9, .cls-10, .cls-11, .cls-12 {
        stroke-linejoin: round;
      }

      .cls-1, .cls-2, .cls-3, .cls-4, .cls-5, .cls-7, .cls-8, .cls-9, .cls-10, .cls-11 {
        fill: none;
      }

      .cls-1, .cls-2, .cls-3, .cls-4, .cls-5, .cls-7, .cls-8, .cls-9, .cls-10, .cls-11, .cls-12 {
        stroke-width: 1.07px;
      }

      .cls-1, .cls-3 {
        stroke: #800020;
      }

      .cls-1, .cls-4, .cls-5, .cls-7 {
        stroke-dasharray: 0 0 3 3;
      }

      .cls-2 {
        stroke-dasharray: 0 0 5.69 5.69;
      }

      .cls-2, .cls-5, .cls-9, .cls-12 {
        stroke: #0659bf;
      }

      .cls-4, .cls-8 {
        stroke: #098f07;
      }

      .cls-6 {
        fill: #bebebe;
        stroke-linecap: round;
        stroke-width: .85px;
      }

      .cls-6, .cls-7, .cls-11 {
        stroke: #000;
      }

      .cls-13 {
        fill: #800020;
      }

      .cls-13, .cls-14, .cls-15 {
        stroke-width: 0px;
      }

      .cls-16 {
        letter-spacing: -.06em;
      }

      .cls-17 {
        font-size: 13.2px;
      }

      .cls-17, .cls-18, .cls-19 {
        font-family: ArialMT, Arial;
        isolation: isolate;
      }

      .cls-14, .cls-12 {
        fill: #0659bf;
      }

      .cls-10 {
        stroke: #e5e5e5;
      }

      .cls-15 {
        fill: #098f07;
      }

      .cls-18 {
        font-size: 10px;
      }

      .cls-19 {
        font-size: 8.8px;
      }
    </style>
  </defs>
  <text class="cls-17" transform="translate(64.91 11.33)"><tspan x="0" y="0">0 μg/ml</tspan></text>
  <line class="cls-7" x1="206.45" y1="398.89" x2="220.28" y2="398.89"/>
  <line class="cls-11" x1="206.45" y1="416.17" x2="220.28" y2="416.17"/>
  <text class="cls-19" transform="translate(227.48 402.1)"><tspan x="0" y="0">incomplete</tspan></text>
  <text class="cls-19" transform="translate(227.48 419.38)"><tspan x="0" y="0">stable</tspan></text>
  <line class="cls-3" x1="126.18" y1="391.11" x2="140.01" y2="391.11"/>
  <line class="cls-9" x1="126.18" y1="408.39" x2="140.01" y2="408.39"/>
  <line class="cls-8" x1="126.18" y1="425.67" x2="140.01" y2="425.67"/>
  <text class="cls-19" transform="translate(147.21 394.32)"><tspan x="0" y="0">exclusion</tspan></text>
  <text class="cls-19" transform="translate(147.21 411.6)"><tspan x="0" y="0">coexistence</tspan></text>
  <text class="cls-19" transform="translate(147.21 428.88)"><tspan x="0" y="0">bistability</tspan></text>
  <g>
    <line class="cls-10" x1="51.77" y1="99.05" x2="479.33" y2="99.05"/>
    <line class="cls-10" x1="51.77" y1="73.6" x2="479.33" y2="73.6"/>
    <line class="cls-10" x1="51.76" y1="48.15" x2="479.33" y2="48.15"/>
  </g>
  <g>
    <line class="cls-10" x1="51.77" y1="205.4" x2="479.33" y2="205.4"/>
    <line class="cls-10" x1="51.77" y1="179.95" x2="479.33" y2="179.95"/>
    <line class="cls-10" x1="51.77" y1="154.49" x2="479.33" y2="154.49"/>
  </g>
  <g>
    <line class="cls-10" x1="51.77" y1="362.65" x2="479.33" y2="362.65"/>
    <line class="cls-10" x1="51.77" y1="337.2" x2="479.33" y2="337.2"/>
    <line class="cls-10" x1="51.77" y1="311.75" x2="479.33" y2="311.75"/>
    <line class="cls-10" x1="51.77" y1="286.29" x2="479.33" y2="286.29"/>
    <line class="cls-10" x1="51.77" y1="260.84" x2="479.33" y2="260.84"/>
    <line class="cls-10" x1="379.13" y1="388.1" x2="479.33" y2="388.1"/>
  </g>
  <g>
    <text class="cls-18" transform="translate(75.56 38.1)"><tspan x="0" y="0">1287</tspan></text>
    <circle class="cls-6" cx="86.68" cy="48.15" r="3.63"/>
    <circle class="cls-6" cx="63.74" cy="73.6" r="3.63"/>
    <circle class="cls-6" cx="109.62" cy="73.6" r="3.63"/>
    <circle class="cls-6" cx="86.68" cy="99.05" r="3.63"/>
    <g>
      <polyline class="cls-3" points="86.68 54.95 86.68 55.13 86.68 55.76 86.68 56.37 86.68 56.97 86.68 57.56 86.68 58.14 86.68 58.71 86.68 59.26 86.68 59.81 86.68 60.35 86.68 60.88 86.68 61.39 86.68 61.9 86.68 62.4 86.68 62.89 86.68 63.38 86.68 63.85 86.68 64.32 86.68 64.79 86.68 65.24 86.68 65.69 86.68 66.13 86.68 66.57 86.68 67 86.68 67.43 86.68 67.85 86.68 68.26 86.68 68.68 86.68 69.08 86.68 69.49 86.68 69.89 86.68 70.29 86.68 70.68 86.68 71.08 86.68 71.47 86.68 71.86 86.68 72.25 86.68 72.63 86.68 73.02 86.68 73.41 86.68 73.79 86.68 74.18 86.68 74.56 86.68 74.95 86.68 75.34 86.68 75.73 86.68 76.12 86.68 76.51 86.68 76.91 86.68 77.31 86.68 77.71 86.68 78.11 86.68 78.52 86.68 78.93 86.68 79.35 86.68 79.77 86.68 80.2 86.68 80.63 86.68 81.07 86.68 81.51 86.68 81.96 86.68 82.41 86.68 82.87 86.68 83.34 86.68 83.82 86.68 84.3 86.68 84.79 86.68 85.29 86.68 85.8 86.68 86.32 86.68 86.85 86.68 87.39 86.68 87.93 86.68 88.49 86.68 89.06 86.68 89.18"/>
      <polygon class="cls-13" points="84.55 88.55 86.68 92.25 88.82 88.55 84.55 88.55"/>
    </g>
    <g>
      <polyline class="cls-1" points="89.1 54.5 89.11 54.51 89.34 54.77 89.57 55.02 89.82 55.27 90.07 55.52 90.33 55.76 90.59 56 90.87 56.23 91.14 56.47 91.43 56.69 91.72 56.92 92.02 57.14 92.32 57.36 92.62 57.57 92.94 57.79 93.25 58 93.57 58.2 93.9 58.41 94.22 58.61 94.55 58.82 94.89 59.02 95.22 59.22 95.56 59.41 95.9 59.61 96.24 59.81 96.59 60 96.93 60.2 97.28 60.39 97.63 60.58 97.97 60.78 98.32 60.97 98.67 61.16 99.02 61.35 99.36 61.55 99.71 61.74 100.05 61.94 100.39 62.13 100.73 62.33 101.07 62.53 101.41 62.73 101.74 62.93 102.07 63.13 102.4 63.33 102.72 63.54 103.04 63.75 103.36 63.96 103.67 64.17 103.98 64.39 104.28 64.61 104.57 64.83 104.87 65.05 104.97 65.12"/>
      <polygon class="cls-13" points="103.03 66.3 107.19 67.24 105.92 63.16 103.03 66.3"/>
    </g>
    <g>
      <polyline class="cls-1" points="107.19 79.95 107.19 79.96 106.96 80.22 106.72 80.48 106.48 80.73 106.23 80.97 105.97 81.22 105.7 81.45 105.43 81.69 105.15 81.92 104.87 82.15 104.57 82.37 104.28 82.59 103.98 82.81 103.67 83.03 103.36 83.24 103.04 83.45 102.72 83.66 102.4 83.86 102.07 84.07 101.74 84.27 101.41 84.47 101.07 84.67 100.73 84.87 100.39 85.06 100.05 85.26 99.71 85.45 99.36 85.65 99.02 85.84 98.67 86.04 98.32 86.23 97.97 86.42 97.63 86.61 97.28 86.81 96.93 87 96.59 87.2 96.24 87.39 95.9 87.59 95.56 87.78 95.22 87.98 94.89 88.18 94.55 88.38 94.22 88.58 93.9 88.79 93.57 88.99 93.25 89.2 92.94 89.41 92.62 89.62 92.32 89.84 92.02 90.06 91.72 90.28 91.43 90.5 91.33 90.58"/>
      <polygon class="cls-13" points="90.37 88.62 89.1 92.7 93.27 91.75 90.37 88.62"/>
    </g>
    <g>
      <polyline class="cls-9" points="82.03 56.61 81.93 56.69 81.63 56.92 81.34 57.14 81.04 57.36 80.73 57.57 80.42 57.79 80.1 58 79.78 58.2 79.46 58.41 79.13 58.61 78.8 58.82 78.47 59.02 78.13 59.22 77.79 59.41 77.45 59.61 77.11 59.81 76.77 60 76.42 60.2 76.08 60.39 75.73 60.58 75.38 60.78 75.03 60.97 74.69 61.16 74.34 61.35 73.99 61.55 73.65 61.74 73.3 61.94 72.96 62.13 72.62 62.33 72.28 62.53 71.95 62.73 71.61 62.93 71.28 63.13 70.96 63.33 70.63 63.54 70.31 63.75 70 63.96 69.68 64.17 69.38 64.39 69.08 64.61 68.78 64.83 68.49 65.05 68.4 65.13"/>
      <polygon class="cls-14" points="80.09 55.44 84.25 54.5 82.99 58.57 80.09 55.44"/>
      <polygon class="cls-14" points="67.44 63.16 66.16 67.24 70.33 66.3 67.44 63.16"/>
    </g>
    <g>
      <polyline class="cls-9" points="68.39 82.06 68.49 82.15 68.78 82.37 69.08 82.59 69.38 82.81 69.68 83.03 70 83.24 70.31 83.45 70.63 83.66 70.96 83.86 71.28 84.07 71.61 84.27 71.95 84.47 72.28 84.67 72.62 84.87 72.96 85.06 73.3 85.26 73.65 85.45 73.99 85.65 74.34 85.84 74.69 86.04 75.03 86.23 75.38 86.42 75.73 86.61 76.08 86.81 76.42 87 76.77 87.2 77.11 87.39 77.45 87.59 77.79 87.78 78.13 87.98 78.47 88.18 78.8 88.38 79.13 88.58 79.46 88.79 79.78 88.99 80.1 89.2 80.42 89.41 80.73 89.62 81.04 89.84 81.34 90.06 81.63 90.28 81.93 90.5 82.03 90.58"/>
      <polygon class="cls-14" points="67.43 84.02 66.16 79.95 70.33 80.89 67.43 84.02"/>
      <polygon class="cls-14" points="80.09 91.75 84.25 92.7 82.99 88.62 80.09 91.75"/>
    </g>
    <g>
      <path class="cls-9" d="m99.74,73.6h-26.13"/>
      <polygon class="cls-14" points="99.12 71.46 102.81 73.6 99.12 75.73 99.12 71.46"/>
      <polygon class="cls-14" points="74.24 71.46 70.54 73.6 74.24 75.73 74.24 71.46"/>
    </g>
    <text class="cls-18" transform="translate(112.27 65.74)"><tspan x="0" y="0">1977</tspan></text>
    <text class="cls-18" transform="translate(75.56 114.49)"><tspan x="0" y="0">0403</tspan></text>
    <text class="cls-18" transform="translate(36.75 87.47)"><tspan x="0" y="0">1896</tspan></text>
  </g>
  <g>
    <circle class="cls-6" cx="205.84" cy="48.15" r="3.63"/>
    <circle class="cls-6" cx="182.9" cy="73.6" r="3.63"/>
    <circle class="cls-6" cx="228.78" cy="73.6" r="3.63"/>
    <circle class="cls-6" cx="205.84" cy="99.05" r="3.63"/>
    <g>
      <polyline class="cls-3" points="205.84 54.95 205.84 55.13 205.84 55.76 205.84 56.37 205.84 56.97 205.84 57.56 205.84 58.14 205.84 58.71 205.84 59.26 205.84 59.81 205.84 60.35 205.84 60.88 205.84 61.39 205.84 61.9 205.84 62.4 205.84 62.89 205.84 63.38 205.84 63.85 205.84 64.32 205.84 64.79 205.84 65.24 205.84 65.69 205.84 66.13 205.84 66.57 205.84 67 205.84 67.43 205.84 67.85 205.84 68.26 205.84 68.68 205.84 69.08 205.84 69.49 205.84 69.89 205.84 70.29 205.84 70.68 205.84 71.08 205.84 71.47 205.84 71.86 205.84 72.25 205.84 72.63 205.84 73.02 205.84 73.41 205.84 73.79 205.84 74.18 205.84 74.56 205.84 74.95 205.84 75.34 205.84 75.73 205.84 76.12 205.84 76.51 205.84 76.91 205.84 77.31 205.84 77.71 205.84 78.11 205.84 78.52 205.84 78.93 205.84 79.35 205.84 79.77 205.84 80.2 205.84 80.63 205.84 81.07 205.84 81.51 205.84 81.96 205.84 82.41 205.84 82.87 205.84 83.34 205.84 83.82 205.84 84.3 205.84 84.79 205.84 85.29 205.84 85.8 205.84 86.32 205.84 86.85 205.84 87.39 205.84 87.93 205.84 88.49 205.84 89.06 205.84 89.18"/>
      <polygon class="cls-13" points="203.71 88.55 205.84 92.25 207.98 88.55 203.71 88.55"/>
    </g>
    <g>
      <polyline class="cls-3" points="208.27 54.5 208.27 54.51 208.5 54.77 208.74 55.02 208.98 55.27 209.23 55.52 209.49 55.76 209.76 56 210.03 56.23 210.31 56.47 210.59 56.69 210.88 56.92 211.18 57.14 211.48 57.36 211.79 57.57 212.1 57.79 212.42 58 212.73 58.2 213.06 58.41 213.39 58.61 213.72 58.82 214.05 59.02 214.39 59.22 214.72 59.41 215.06 59.61 215.41 59.81 215.75 60 216.1 60.2 216.44 60.39 216.79 60.58 217.14 60.78 217.48 60.97 217.83 61.16 218.18 61.35 218.53 61.55 218.87 61.74 219.21 61.94 219.56 62.13 219.9 62.33 220.24 62.53 220.57 62.73 220.91 62.93 221.24 63.13 221.56 63.33 221.89 63.54 222.21 63.75 222.52 63.96 222.83 64.17 223.14 64.39 223.44 64.61 223.74 64.83 224.03 65.05 224.13 65.12"/>
      <polygon class="cls-13" points="222.19 66.3 226.35 67.24 225.09 63.16 222.19 66.3"/>
    </g>
    <g>
      <polyline class="cls-1" points="226.35 79.95 226.35 79.96 226.12 80.22 225.89 80.48 225.64 80.73 225.39 80.97 225.13 81.22 224.87 81.45 224.59 81.69 224.31 81.92 224.03 82.15 223.74 82.37 223.44 82.59 223.14 82.81 222.83 83.03 222.52 83.24 222.21 83.45 221.89 83.66 221.56 83.86 221.24 84.07 220.91 84.27 220.57 84.47 220.24 84.67 219.9 84.87 219.56 85.06 219.21 85.26 218.87 85.45 218.53 85.65 218.18 85.84 217.83 86.04 217.48 86.23 217.14 86.42 216.79 86.61 216.44 86.81 216.1 87 215.75 87.2 215.41 87.39 215.06 87.59 214.72 87.78 214.39 87.98 214.05 88.18 213.72 88.38 213.39 88.58 213.06 88.79 212.73 88.99 212.42 89.2 212.1 89.41 211.79 89.62 211.48 89.84 211.18 90.06 210.88 90.28 210.59 90.5 210.5 90.58"/>
      <polygon class="cls-13" points="209.53 88.62 208.27 92.7 212.44 91.75 209.53 88.62"/>
    </g>
    <g>
      <polyline class="cls-5" points="201.19 56.61 201.09 56.69 200.8 56.92 200.5 57.14 200.2 57.36 199.89 57.57 199.58 57.79 199.27 58 198.95 58.2 198.62 58.41 198.3 58.61 197.97 58.82 197.63 59.02 197.3 59.22 196.96 59.41 196.62 59.61 196.27 59.81 195.93 60 195.59 60.2 195.24 60.39 194.89 60.58 194.54 60.78 194.2 60.97 193.85 61.16 193.5 61.35 193.16 61.55 192.81 61.74 192.47 61.94 192.12 62.13 191.78 62.33 191.45 62.53 191.11 62.73 190.78 62.93 190.45 63.13 190.12 63.33 189.79 63.54 189.47 63.75 189.16 63.96 188.85 64.17 188.54 64.39 188.24 64.61 187.94 64.83 187.65 65.05 187.56 65.12"/>
      <polygon class="cls-14" points="199.25 55.45 203.41 54.5 202.16 58.58 199.25 55.45"/>
      <polygon class="cls-14" points="186.6 63.16 185.33 67.24 189.5 66.3 186.6 63.16"/>
    </g>
    <g>
      <polyline class="cls-9" points="187.56 82.07 187.65 82.15 187.94 82.37 188.24 82.59 188.54 82.81 188.85 83.03 189.16 83.24 189.47 83.45 189.79 83.66 190.12 83.86 190.45 84.07 190.78 84.27 191.11 84.47 191.45 84.67 191.78 84.87 192.12 85.06 192.47 85.26 192.81 85.45 193.16 85.65 193.5 85.84 193.85 86.04 194.2 86.23 194.54 86.42 194.89 86.61 195.24 86.81 195.59 87 195.93 87.2 196.27 87.39 196.62 87.59 196.96 87.78 197.3 87.98 197.63 88.18 197.97 88.38 198.3 88.58 198.62 88.79 198.95 88.99 199.27 89.2 199.58 89.41 199.89 89.62 200.2 89.84 200.5 90.06 200.8 90.28 201.09 90.5 201.19 90.58"/>
      <polygon class="cls-14" points="186.59 84.03 185.33 79.95 189.5 80.9 186.59 84.03"/>
      <polygon class="cls-14" points="199.25 91.75 203.41 92.7 202.16 88.62 199.25 91.75"/>
    </g>
    <g>
      <polyline class="cls-9" points="218.91 73.6 218.7 73.6 218.1 73.6 217.5 73.6 216.89 73.6 216.26 73.6 215.63 73.6 214.99 73.6 214.35 73.6 213.69 73.6 213.03 73.6 212.36 73.6 211.69 73.6 211.01 73.6 210.33 73.6 209.65 73.6 208.96 73.6 208.27 73.6 207.58 73.6 206.88 73.6 206.19 73.6 205.49 73.6 204.8 73.6 204.1 73.6 203.41 73.6 202.72 73.6 202.03 73.6 201.35 73.6 200.67 73.6 199.99 73.6 199.32 73.6 198.65 73.6 197.99 73.6 197.34 73.6 196.69 73.6 196.05 73.6 195.42 73.6 194.8 73.6 194.18 73.6 193.58 73.6 192.99 73.6 192.78 73.6"/>
      <polygon class="cls-14" points="218.29 71.46 221.98 73.6 218.29 75.73 218.29 71.46"/>
      <polygon class="cls-14" points="193.4 71.46 189.7 73.6 193.4 75.73 193.4 71.46"/>
    </g>
    <text class="cls-18" transform="translate(193.3 38.55)"><tspan x="0" y="0">1287</tspan></text>
    <text class="cls-18" transform="translate(234.97 68.87)"><tspan x="0" y="0">1977</tspan></text>
    <text class="cls-18" transform="translate(155.65 87.47)"><tspan x="0" y="0">1896</tspan></text>
    <text class="cls-18" transform="translate(194.15 116.43)"><tspan x="0" y="0">0403</tspan></text>
  </g>
  <g>
    <circle class="cls-6" cx="326.18" cy="48.15" r="3.63"/>
    <circle class="cls-6" cx="326.18" cy="73.6" r="3.63"/>
    <circle class="cls-6" cx="303.24" cy="99.05" r="3.63"/>
    <circle class="cls-6" cx="349.12" cy="99.05" r="3.63"/>
    <g>
      <polyline class="cls-3" points="325.54 54.92 325.52 55.13 325.39 55.76 325.25 56.37 325.09 56.97 324.93 57.56 324.76 58.14 324.57 58.71 324.38 59.26 324.18 59.81 323.97 60.35 323.75 60.88 323.52 61.39 323.28 61.9 323.04 62.4 322.79 62.89 322.53 63.38 322.26 63.85 321.99 64.32 321.71 64.79 321.43 65.24 321.13 65.69 320.84 66.13 320.54 66.57 320.23 67 319.92 67.43 319.6 67.85 319.28 68.26 318.96 68.68 318.63 69.08 318.3 69.49 317.97 69.89 317.63 70.29 317.29 70.68 316.95 71.08 316.61 71.47 316.27 71.86 315.92 72.25 315.58 72.63 315.23 73.02 314.88 73.41 314.53 73.79 314.19 74.18 313.84 74.56 313.49 74.95 313.15 75.34 312.8 75.73 312.46 76.12 312.12 76.51 311.78 76.91 311.45 77.31 311.11 77.71 310.78 78.11 310.46 78.52 310.13 78.93 309.81 79.35 309.5 79.77 309.18 80.2 308.88 80.63 308.58 81.07 308.28 81.51 307.99 81.96 307.7 82.41 307.43 82.87 307.15 83.34 306.89 83.82 306.63 84.3 306.38 84.79 306.13 85.29 305.9 85.8 305.67 86.32 305.45 86.85 305.24 87.39 305.03 87.93 304.84 88.49 304.66 89.06 304.59 89.29"/>
      <polygon class="cls-13" points="302.7 88.17 303.87 92.28 306.84 89.21 302.7 88.17"/>
    </g>
    <g>
      <polyline class="cls-3" points="326.18 54.95 326.18 55.02 326.18 55.27 326.18 55.52 326.18 55.76 326.18 56 326.18 56.23 326.18 56.47 326.18 56.69 326.18 56.92 326.18 57.14 326.18 57.36 326.18 57.57 326.18 57.79 326.18 58 326.18 58.2 326.18 58.41 326.18 58.61 326.18 58.82 326.18 59.02 326.18 59.22 326.18 59.41 326.18 59.61 326.18 59.81 326.18 60 326.18 60.2 326.18 60.39 326.18 60.58 326.18 60.78 326.18 60.97 326.18 61.16 326.18 61.35 326.18 61.55 326.18 61.74 326.18 61.94 326.18 62.13 326.18 62.33 326.18 62.53 326.18 62.73 326.18 62.93 326.18 63.13 326.18 63.33 326.18 63.54 326.18 63.73"/>
      <polygon class="cls-13" points="324.05 63.1 326.18 66.8 328.32 63.1 324.05 63.1"/>
    </g>
    <g>
      <polyline class="cls-3" points="326.81 54.92 326.83 55.13 326.96 55.76 327.11 56.37 327.26 56.97 327.42 57.56 327.6 58.14 327.78 58.71 327.97 59.26 328.18 59.81 328.39 60.35 328.61 60.88 328.84 61.39 329.07 61.9 329.32 62.4 329.57 62.89 329.83 63.38 330.09 63.85 330.37 64.32 330.64 64.79 330.93 65.24 331.22 65.69 331.52 66.13 331.82 66.57 332.13 67 332.44 67.43 332.75 67.85 333.07 68.26 333.4 68.68 333.72 69.08 334.05 69.49 334.39 69.89 334.72 70.29 335.06 70.68 335.4 71.08 335.74 71.47 336.09 71.86 336.43 72.25 336.78 72.63 337.13 73.02 337.47 73.41 337.82 73.79 338.17 74.18 338.52 74.56 338.86 74.95 339.21 75.34 339.55 75.73 339.89 76.12 340.23 76.51 340.57 76.91 340.91 77.31 341.24 77.71 341.57 78.11 341.9 78.52 342.22 78.93 342.54 79.35 342.86 79.77 343.17 80.2 343.48 80.63 343.78 81.07 344.07 81.51 344.37 81.96 344.65 82.41 344.93 82.87 345.2 83.34 345.47 83.82 345.73 84.3 345.98 84.79 346.22 85.29 346.46 85.8 346.69 86.32 346.91 86.85 347.12 87.39 347.32 87.93 347.51 88.49 347.7 89.06 347.77 89.29"/>
      <polygon class="cls-13" points="345.52 89.2 348.48 92.28 349.67 88.18 345.52 89.2"/>
    </g>
    <g>
      <polyline class="cls-1" points="323.75 79.95 323.75 79.96 323.52 80.22 323.28 80.48 323.04 80.73 322.79 80.97 322.53 81.22 322.26 81.45 321.99 81.69 321.71 81.92 321.43 82.15 321.13 82.37 320.84 82.59 320.54 82.81 320.23 83.03 319.92 83.24 319.6 83.45 319.28 83.66 318.96 83.86 318.63 84.07 318.3 84.27 317.97 84.47 317.63 84.67 317.29 84.87 316.95 85.06 316.61 85.26 316.27 85.45 315.92 85.65 315.58 85.84 315.23 86.04 314.88 86.23 314.53 86.42 314.19 86.61 313.84 86.81 313.49 87 313.15 87.2 312.8 87.39 312.46 87.59 312.12 87.78 311.78 87.98 311.45 88.18 311.11 88.38 310.78 88.58 310.46 88.79 310.13 88.99 309.81 89.2 309.5 89.41 309.18 89.62 308.88 89.84 308.58 90.06 308.28 90.28 307.99 90.5 307.89 90.58"/>
      <polygon class="cls-13" points="306.93 88.62 305.66 92.7 309.83 91.75 306.93 88.62"/>
    </g>
    <g>
      <polyline class="cls-1" points="328.6 79.95 328.61 79.96 328.84 80.22 329.07 80.48 329.32 80.73 329.57 80.97 329.83 81.22 330.09 81.45 330.37 81.69 330.64 81.92 330.93 82.15 331.22 82.37 331.52 82.59 331.82 82.81 332.13 83.03 332.44 83.24 332.75 83.45 333.07 83.66 333.4 83.86 333.72 84.07 334.05 84.27 334.39 84.47 334.72 84.67 335.06 84.87 335.4 85.06 335.74 85.26 336.09 85.45 336.43 85.65 336.78 85.84 337.13 86.04 337.47 86.23 337.82 86.42 338.17 86.61 338.52 86.81 338.86 87 339.21 87.2 339.55 87.39 339.89 87.59 340.23 87.78 340.57 87.98 340.91 88.18 341.24 88.38 341.57 88.58 341.9 88.79 342.22 88.99 342.54 89.2 342.86 89.41 343.17 89.62 343.48 89.84 343.78 90.06 344.07 90.28 344.37 90.5 344.47 90.58"/>
      <polygon class="cls-13" points="342.53 91.75 346.69 92.7 345.43 88.62 342.53 91.75"/>
    </g>
    <text class="cls-18" transform="translate(315.06 38.1)"><tspan x="0" y="0">1287</tspan></text>
    <text class="cls-18" transform="translate(288.49 115.56)"><tspan x="0" y="0">0403</tspan></text>
    <text class="cls-18" transform="translate(337.36 114.49)"><tspan x="0" y="0">1977</tspan></text>
    <text class="cls-18" transform="translate(337.36 68.23)"><tspan x="0" y="0">1896</tspan></text>
  </g>
  <g>
    <circle class="cls-6" cx="436.45" cy="48.15" r="3.63"/>
    <circle class="cls-6" cx="436.45" cy="73.6" r="3.63"/>
    <circle class="cls-6" cx="413.51" cy="99.05" r="3.63"/>
    <circle class="cls-6" cx="459.39" cy="99.05" r="3.63"/>
    <g>
      <polyline class="cls-3" points="435.81 54.92 435.79 55.13 435.66 55.76 435.52 56.37 435.37 56.97 435.2 57.56 435.03 58.14 434.85 58.71 434.65 59.26 434.45 59.81 434.24 60.35 434.02 60.88 433.79 61.39 433.55 61.9 433.31 62.4 433.06 62.89 432.8 63.38 432.53 63.85 432.26 64.32 431.98 64.79 431.7 65.24 431.41 65.69 431.11 66.13 430.81 66.57 430.5 67 430.19 67.43 429.88 67.85 429.56 68.26 429.23 68.68 428.9 69.08 428.57 69.49 428.24 69.89 427.91 70.29 427.57 70.68 427.23 71.08 426.88 71.47 426.54 71.86 426.19 72.25 425.85 72.63 425.5 73.02 425.15 73.41 424.81 73.79 424.46 74.18 424.11 74.56 423.77 74.95 423.42 75.34 423.08 75.73 422.73 76.12 422.39 76.51 422.05 76.91 421.72 77.31 421.38 77.71 421.05 78.11 420.73 78.52 420.4 78.93 420.08 79.35 419.77 79.77 419.46 80.2 419.15 80.63 418.85 81.07 418.55 81.51 418.26 81.96 417.98 82.41 417.7 82.87 417.43 83.34 417.16 83.82 416.9 84.3 416.65 84.79 416.4 85.29 416.17 85.8 415.94 86.32 415.72 86.85 415.51 87.39 415.31 87.93 415.11 88.49 414.93 89.06 414.87 89.29"/>
      <polygon class="cls-13" points="412.97 88.17 414.14 92.28 417.11 89.21 412.97 88.17"/>
    </g>
    <g>
      <polyline class="cls-3" points="436.45 54.95 436.45 55.02 436.45 55.27 436.45 55.52 436.45 55.76 436.45 56 436.45 56.23 436.45 56.47 436.45 56.69 436.45 56.92 436.45 57.14 436.45 57.36 436.45 57.57 436.45 57.79 436.45 58 436.45 58.2 436.45 58.41 436.45 58.61 436.45 58.82 436.45 59.02 436.45 59.22 436.45 59.41 436.45 59.61 436.45 59.81 436.45 60 436.45 60.2 436.45 60.39 436.45 60.58 436.45 60.78 436.45 60.97 436.45 61.16 436.45 61.35 436.45 61.55 436.45 61.74 436.45 61.94 436.45 62.13 436.45 62.33 436.45 62.53 436.45 62.73 436.45 62.93 436.45 63.13 436.45 63.33 436.45 63.54 436.45 63.73"/>
      <polygon class="cls-13" points="434.32 63.1 436.45 66.8 438.59 63.1 434.32 63.1"/>
    </g>
    <g>
      <polyline class="cls-3" points="437.08 54.92 437.1 55.13 437.24 55.76 437.38 56.37 437.53 56.97 437.7 57.56 437.87 58.14 438.05 58.71 438.25 59.26 438.45 59.81 438.66 60.35 438.88 60.88 439.11 61.39 439.34 61.9 439.59 62.4 439.84 62.89 440.1 63.38 440.37 63.85 440.64 64.32 440.92 64.79 441.2 65.24 441.49 65.69 441.79 66.13 442.09 66.57 442.4 67 442.71 67.43 443.02 67.85 443.34 68.26 443.67 68.68 443.99 69.08 444.33 69.49 444.66 69.89 444.99 70.29 445.33 70.68 445.67 71.08 446.02 71.47 446.36 71.86 446.71 72.25 447.05 72.63 447.4 73.02 447.75 73.41 448.09 73.79 448.44 74.18 448.79 74.56 449.13 74.95 449.48 75.34 449.82 75.73 450.17 76.12 450.51 76.51 450.85 76.91 451.18 77.31 451.51 77.71 451.85 78.11 452.17 78.52 452.5 78.93 452.82 79.35 453.13 79.77 453.44 80.2 453.75 80.63 454.05 81.07 454.35 81.51 454.64 81.96 454.92 82.41 455.2 82.87 455.47 83.34 455.74 83.82 456 84.3 456.25 84.79 456.49 85.29 456.73 85.8 456.96 86.32 457.18 86.85 457.39 87.39 457.59 87.93 457.79 88.49 457.97 89.06 458.04 89.29"/>
      <polygon class="cls-13" points="455.8 89.2 458.75 92.28 459.94 88.18 455.8 89.2"/>
    </g>
    <g>
      <polyline class="cls-3" points="434.02 79.95 434.02 79.96 433.79 80.22 433.55 80.48 433.31 80.73 433.06 80.97 432.8 81.22 432.53 81.45 432.26 81.69 431.98 81.92 431.7 82.15 431.41 82.37 431.11 82.59 430.81 82.81 430.5 83.03 430.19 83.24 429.88 83.45 429.56 83.66 429.23 83.86 428.9 84.07 428.57 84.27 428.24 84.47 427.91 84.67 427.57 84.87 427.23 85.06 426.88 85.26 426.54 85.45 426.19 85.65 425.85 85.84 425.5 86.04 425.15 86.23 424.81 86.42 424.46 86.61 424.11 86.81 423.77 87 423.42 87.2 423.08 87.39 422.73 87.59 422.39 87.78 422.05 87.98 421.72 88.18 421.38 88.38 421.05 88.58 420.73 88.79 420.4 88.99 420.08 89.2 419.77 89.41 419.46 89.62 419.15 89.84 418.85 90.06 418.55 90.28 418.26 90.5 418.17 90.58"/>
      <polygon class="cls-13" points="417.2 88.62 415.94 92.7 420.11 91.75 417.2 88.62"/>
    </g>
    <g>
      <polyline class="cls-3" points="438.88 79.95 438.88 79.96 439.11 80.22 439.34 80.48 439.59 80.73 439.84 80.97 440.1 81.22 440.37 81.45 440.64 81.69 440.92 81.92 441.2 82.15 441.49 82.37 441.79 82.59 442.09 82.81 442.4 83.03 442.71 83.24 443.02 83.45 443.34 83.66 443.67 83.86 443.99 84.07 444.33 84.27 444.66 84.47 444.99 84.67 445.33 84.87 445.67 85.06 446.02 85.26 446.36 85.45 446.71 85.65 447.05 85.84 447.4 86.04 447.75 86.23 448.09 86.42 448.44 86.61 448.79 86.81 449.13 87 449.48 87.2 449.82 87.39 450.17 87.59 450.51 87.78 450.85 87.98 451.18 88.18 451.51 88.38 451.85 88.58 452.17 88.79 452.5 88.99 452.82 89.2 453.13 89.41 453.44 89.62 453.75 89.84 454.05 90.06 454.35 90.28 454.64 90.5 454.74 90.58"/>
      <polygon class="cls-13" points="452.8 91.75 456.96 92.7 455.71 88.62 452.8 91.75"/>
    </g>
    <text class="cls-18" transform="translate(402.39 113.98)"><tspan x="0" y="0">0403</tspan></text>
    <text class="cls-18" transform="translate(449.46 114.4)"><tspan x="0" y="0">1977</tspan></text>
    <text class="cls-18" transform="translate(449.92 66.32)"><tspan x="0" y="0">1896</tspan></text>
    <text class="cls-18" transform="translate(425.96 38.13)"><tspan x="0" y="0">1287</tspan></text>
  </g>
  <g>
    <circle class="cls-6" cx="436.45" cy="154.49" r="3.63"/>
    <circle class="cls-6" cx="413.51" cy="179.95" r="3.63"/>
    <circle class="cls-6" cx="459.39" cy="179.95" r="3.63"/>
    <circle class="cls-6" cx="436.45" cy="205.4" r="3.63"/>
    <g>
      <polyline class="cls-1" points="436.45 161.3 436.45 161.48 436.45 162.1 436.45 162.72 436.45 163.32 436.45 163.91 436.45 164.49 436.45 165.05 436.45 165.61 436.45 166.16 436.45 166.69 436.45 167.22 436.45 167.74 436.45 168.25 436.45 168.75 436.45 169.24 436.45 169.73 436.45 170.2 436.45 170.67 436.45 171.13 436.45 171.59 436.45 172.04 436.45 172.48 436.45 172.92 436.45 173.35 436.45 173.77 436.45 174.19 436.45 174.61 436.45 175.02 436.45 175.43 436.45 175.84 436.45 176.24 436.45 176.64 436.45 177.03 436.45 177.42 436.45 177.82 436.45 178.21 436.45 178.59 436.45 178.98 436.45 179.37 436.45 179.75 436.45 180.14 436.45 180.52 436.45 180.91 436.45 181.3 436.45 181.69 436.45 182.08 436.45 182.47 436.45 182.86 436.45 183.26 436.45 183.65 436.45 184.06 436.45 184.46 436.45 184.87 436.45 185.28 436.45 185.7 436.45 186.12 436.45 186.54 436.45 186.98 436.45 187.41 436.45 187.85 436.45 188.3 436.45 188.76 436.45 189.22 436.45 189.69 436.45 190.17 436.45 190.65 436.45 191.14 436.45 191.64 436.45 192.15 436.45 192.67 436.45 193.2 436.45 193.73 436.45 194.28 436.45 194.84 436.45 195.4 436.45 195.53"/>
      <polygon class="cls-13" points="434.32 194.9 436.45 198.6 438.59 194.9 434.32 194.9"/>
    </g>
    <g>
      <polyline class="cls-9" points="431.8 196.92 431.7 196.85 431.41 196.63 431.11 196.41 430.81 196.19 430.5 195.97 430.19 195.76 429.88 195.55 429.56 195.34 429.23 195.13 428.9 194.93 428.57 194.73 428.24 194.53 427.91 194.33 427.57 194.13 427.23 193.93 426.88 193.74 426.54 193.54 426.19 193.35 425.85 193.15 425.5 192.96 425.15 192.77 424.81 192.58 424.46 192.38 424.11 192.19 423.77 192 423.42 191.8 423.08 191.61 422.73 191.41 422.39 191.21 422.05 191.02 421.72 190.82 421.38 190.62 421.05 190.41 420.73 190.21 420.4 190 420.08 189.8 419.77 189.59 419.46 189.37 419.15 189.16 418.85 188.94 418.55 188.72 418.26 188.49 418.17 188.41"/>
      <polygon class="cls-14" points="432.76 194.96 434.02 199.04 429.86 198.1 432.76 194.96"/>
      <polygon class="cls-14" points="420.11 187.25 415.94 186.3 417.2 190.38 420.11 187.25"/>
    </g>
    <g>
      <polyline class="cls-5" points="420.31 176.95 420.81 176.95 421.34 176.95 421.89 176.95 422.44 176.95 423.01 176.95 423.6 176.95 424.19 176.95 424.79 176.95 425.4 176.95 426.03 176.95 426.66 176.95 427.3 176.95 427.94 176.95 428.6 176.95 429.26 176.95 429.93 176.95 430.6 176.95 431.28 176.95 431.96 176.95 432.64 176.95 433.33 176.95 434.02 176.95 434.71 176.95 435.41 176.95 436.1 176.95 436.8 176.95 437.49 176.95 438.19 176.95 438.88 176.95 439.57 176.95 440.26 176.95 440.94 176.95 441.62 176.95 442.3 176.95 442.97 176.95 443.64 176.95 444.3 176.95 444.95 176.95 445.6 176.95 446.24 176.95 446.87 176.95 447.5 176.95 448.11 176.95 448.71 176.95 449.3 176.95 449.52 176.95"/>
      <polygon class="cls-14" points="448.9 179.08 452.59 176.95 448.9 174.81 448.9 179.08"/>
    </g>
    <g>
      <polyline class="cls-9" points="454.74 188.41 454.64 188.49 454.35 188.72 454.05 188.94 453.75 189.16 453.44 189.37 453.13 189.59 452.82 189.8 452.5 190 452.17 190.21 451.85 190.41 451.51 190.62 451.18 190.82 450.85 191.02 450.51 191.21 450.17 191.41 449.82 191.61 449.48 191.8 449.13 192 448.79 192.19 448.44 192.38 448.09 192.58 447.75 192.77 447.4 192.96 447.05 193.15 446.71 193.35 446.36 193.54 446.02 193.74 445.67 193.93 445.33 194.13 444.99 194.33 444.66 194.53 444.33 194.73 443.99 194.93 443.67 195.13 443.34 195.34 443.02 195.55 442.71 195.76 442.4 195.97 442.09 196.19 441.79 196.41 441.49 196.63 441.2 196.85 441.11 196.92"/>
      <polygon class="cls-14" points="452.8 187.25 456.96 186.3 455.71 190.38 452.8 187.25"/>
      <polygon class="cls-14" points="440.15 194.96 438.88 199.04 443.05 198.1 440.15 194.96"/>
    </g>
    <g>
      <polyline class="cls-5" points="452.59 182.95 452.09 182.95 451.56 182.95 451.01 182.95 450.46 182.95 449.89 182.95 449.3 182.95 448.71 182.95 448.11 182.95 447.5 182.95 446.87 182.95 446.24 182.95 445.6 182.95 444.95 182.95 444.3 182.95 443.64 182.95 442.97 182.95 442.3 182.95 441.62 182.95 440.94 182.95 440.26 182.95 439.57 182.95 438.88 182.95 438.19 182.95 437.49 182.95 436.8 182.95 436.1 182.95 435.41 182.95 434.71 182.95 434.02 182.95 433.33 182.95 432.64 182.95 431.96 182.95 431.28 182.95 430.6 182.95 429.93 182.95 429.26 182.95 428.6 182.95 427.94 182.95 427.3 182.95 426.66 182.95 426.03 182.95 425.4 182.95 424.79 182.95 424.19 182.95 423.6 182.95 423.39 182.95"/>
      <polygon class="cls-14" points="424.01 180.81 420.31 182.95 424.01 185.08 424.01 180.81"/>
    </g>
    <g>
      <polyline class="cls-5" points="431.8 162.96 431.7 163.04 431.41 163.26 431.11 163.49 430.81 163.7 430.5 163.92 430.19 164.13 429.88 164.34 429.56 164.55 429.23 164.76 428.9 164.96 428.57 165.16 428.24 165.36 427.91 165.56 427.57 165.76 427.23 165.96 426.88 166.15 426.54 166.35 426.19 166.54 425.85 166.74 425.5 166.93 425.15 167.12 424.81 167.32 424.46 167.51 424.11 167.7 423.77 167.9 423.42 168.09 423.08 168.28 422.73 168.48 422.39 168.68 422.05 168.87 421.72 169.07 421.38 169.27 421.05 169.48 420.73 169.68 420.4 169.89 420.08 170.1 419.77 170.31 419.46 170.52 419.15 170.73 418.85 170.95 418.55 171.17 418.26 171.4 418.17 171.47"/>
      <polygon class="cls-14" points="429.86 161.79 434.02 160.85 432.76 164.92 429.86 161.79"/>
      <polygon class="cls-14" points="417.2 169.51 415.94 173.59 420.11 172.64 417.2 169.51"/>
    </g>
    <g>
      <polyline class="cls-9" points="441.11 162.96 441.2 163.04 441.49 163.26 441.79 163.49 442.09 163.7 442.4 163.92 442.71 164.13 443.02 164.34 443.34 164.55 443.67 164.76 443.99 164.96 444.33 165.16 444.66 165.36 444.99 165.56 445.33 165.76 445.67 165.96 446.02 166.15 446.36 166.35 446.71 166.54 447.05 166.74 447.4 166.93 447.75 167.12 448.09 167.32 448.44 167.51 448.79 167.7 449.13 167.9 449.48 168.09 449.82 168.28 450.17 168.48 450.51 168.68 450.85 168.87 451.18 169.07 451.51 169.27 451.85 169.48 452.17 169.68 452.5 169.89 452.82 170.1 453.13 170.31 453.44 170.52 453.75 170.73 454.05 170.95 454.35 171.17 454.64 171.4 454.74 171.47"/>
      <polygon class="cls-14" points="440.15 164.92 438.88 160.85 443.05 161.79 440.15 164.92"/>
      <polygon class="cls-14" points="452.8 172.64 456.96 173.59 455.71 169.51 452.8 172.64"/>
    </g>
    <text class="cls-18" transform="translate(424.69 145.32)"><tspan x="0" y="0">1977</tspan></text>
    <text class="cls-18" transform="translate(463.02 173.45)"><tspan x="0" y="0">1896</tspan></text>
    <text class="cls-18" transform="translate(388.96 172.13)"><tspan x="0" y="0">1287</tspan></text>
    <text class="cls-18" transform="translate(424.69 222.99)"><tspan x="0" y="0">0403</tspan></text>
  </g>
  <g>
    <circle class="cls-6" cx="326.18" cy="154.49" r="3.63"/>
    <circle class="cls-6" cx="303.24" cy="179.95" r="3.63"/>
    <circle class="cls-6" cx="349.12" cy="179.95" r="3.63"/>
    <circle class="cls-6" cx="326.18" cy="205.4" r="3.63"/>
    <g>
      <polyline class="cls-3" points="326.18 161.3 326.18 161.48 326.18 162.1 326.18 162.72 326.18 163.32 326.18 163.91 326.18 164.49 326.18 165.05 326.18 165.61 326.18 166.16 326.18 166.69 326.18 167.22 326.18 167.74 326.18 168.25 326.18 168.75 326.18 169.24 326.18 169.73 326.18 170.2 326.18 170.67 326.18 171.13 326.18 171.59 326.18 172.04 326.18 172.48 326.18 172.92 326.18 173.35 326.18 173.77 326.18 174.19 326.18 174.61 326.18 175.02 326.18 175.43 326.18 175.84 326.18 176.24 326.18 176.64 326.18 177.03 326.18 177.42 326.18 177.82 326.18 178.21 326.18 178.59 326.18 178.98 326.18 179.37 326.18 179.75 326.18 180.14 326.18 180.52 326.18 180.91 326.18 181.3 326.18 181.69 326.18 182.08 326.18 182.47 326.18 182.86 326.18 183.26 326.18 183.65 326.18 184.06 326.18 184.46 326.18 184.87 326.18 185.28 326.18 185.7 326.18 186.12 326.18 186.54 326.18 186.98 326.18 187.41 326.18 187.85 326.18 188.3 326.18 188.76 326.18 189.22 326.18 189.69 326.18 190.17 326.18 190.65 326.18 191.14 326.18 191.64 326.18 192.15 326.18 192.67 326.18 193.2 326.18 193.73 326.18 194.28 326.18 194.84 326.18 195.4 326.18 195.53"/>
      <polygon class="cls-13" points="324.05 194.9 326.18 198.6 328.32 194.9 324.05 194.9"/>
    </g>
    <g>
      <polyline class="cls-9" points="321.53 196.92 321.43 196.85 321.13 196.63 320.84 196.41 320.54 196.19 320.23 195.97 319.92 195.76 319.6 195.55 319.28 195.34 318.96 195.13 318.63 194.93 318.3 194.73 317.97 194.53 317.63 194.33 317.29 194.13 316.95 193.93 316.61 193.74 316.27 193.54 315.92 193.35 315.58 193.15 315.23 192.96 314.88 192.77 314.53 192.58 314.19 192.38 313.84 192.19 313.49 192 313.15 191.8 312.8 191.61 312.46 191.41 312.12 191.21 311.78 191.02 311.45 190.82 311.11 190.62 310.78 190.41 310.46 190.21 310.13 190 309.81 189.8 309.5 189.59 309.18 189.37 308.88 189.16 308.58 188.94 308.28 188.72 307.99 188.49 307.89 188.41"/>
      <polygon class="cls-14" points="322.48 194.96 323.75 199.04 319.59 198.1 322.48 194.96"/>
      <polygon class="cls-14" points="309.83 187.24 305.66 186.3 306.93 190.37 309.83 187.24"/>
    </g>
    <g>
      <polyline class="cls-9" points="344.47 188.41 344.37 188.49 344.07 188.72 343.78 188.94 343.48 189.16 343.17 189.37 342.86 189.59 342.54 189.8 342.22 190 341.9 190.21 341.57 190.41 341.24 190.62 340.91 190.82 340.57 191.02 340.23 191.21 339.89 191.41 339.55 191.61 339.21 191.8 338.86 192 338.52 192.19 338.17 192.38 337.82 192.58 337.47 192.77 337.13 192.96 336.78 193.15 336.43 193.35 336.09 193.54 335.74 193.74 335.4 193.93 335.06 194.13 334.72 194.33 334.39 194.53 334.05 194.73 333.72 194.93 333.4 195.13 333.07 195.34 332.75 195.55 332.44 195.76 332.13 195.97 331.82 196.19 331.52 196.41 331.22 196.63 330.93 196.85 330.84 196.93"/>
      <polygon class="cls-14" points="342.53 187.24 346.69 186.3 345.43 190.37 342.53 187.24"/>
      <polygon class="cls-14" points="329.88 194.96 328.6 199.04 332.77 198.1 329.88 194.96"/>
    </g>
    <g>
      <polyline class="cls-5" points="339.24 179.95 339.03 179.95 338.44 179.95 337.84 179.95 337.22 179.95 336.6 179.95 335.97 179.95 335.33 179.95 334.68 179.95 334.03 179.95 333.37 179.95 332.7 179.95 332.03 179.95 331.35 179.95 330.67 179.95 329.99 179.95 329.3 179.95 328.61 179.95 327.91 179.95 327.22 179.95 326.53 179.95 325.83 179.95 325.14 179.95 324.44 179.95 323.75 179.95 323.06 179.95 322.37 179.95 321.69 179.95 321 179.95 320.33 179.95 319.65 179.95 318.99 179.95 318.33 179.95 317.67 179.95 317.03 179.95 316.39 179.95 315.75 179.95 315.13 179.95 314.52 179.95 313.92 179.95 313.32 179.95 313.12 179.95"/>
      <polygon class="cls-14" points="338.62 177.81 342.31 179.95 338.62 182.08 338.62 177.81"/>
      <polygon class="cls-14" points="313.74 177.81 310.04 179.95 313.74 182.08 313.74 177.81"/>
    </g>
    <g>
      <polyline class="cls-9" points="321.53 162.96 321.43 163.04 321.13 163.26 320.84 163.49 320.54 163.7 320.23 163.92 319.92 164.13 319.6 164.34 319.28 164.55 318.96 164.76 318.63 164.96 318.3 165.16 317.97 165.36 317.63 165.56 317.29 165.76 316.95 165.96 316.61 166.15 316.27 166.35 315.92 166.54 315.58 166.74 315.23 166.93 314.88 167.12 314.53 167.32 314.19 167.51 313.84 167.7 313.49 167.9 313.15 168.09 312.8 168.28 312.46 168.48 312.12 168.68 311.78 168.87 311.45 169.07 311.11 169.27 310.78 169.48 310.46 169.68 310.13 169.89 309.81 170.1 309.5 170.31 309.18 170.52 308.88 170.73 308.58 170.95 308.28 171.17 307.99 171.4 307.9 171.48"/>
      <polygon class="cls-14" points="319.59 161.78 323.75 160.85 322.48 164.92 319.59 161.78"/>
      <polygon class="cls-14" points="306.93 169.51 305.66 173.59 309.83 172.64 306.93 169.51"/>
    </g>
    <g>
      <polyline class="cls-9" points="330.84 162.96 330.93 163.04 331.22 163.26 331.52 163.49 331.82 163.7 332.13 163.92 332.44 164.13 332.75 164.34 333.07 164.55 333.4 164.76 333.72 164.96 334.05 165.16 334.39 165.36 334.72 165.56 335.06 165.76 335.4 165.96 335.74 166.15 336.09 166.35 336.43 166.54 336.78 166.74 337.13 166.93 337.47 167.12 337.82 167.32 338.17 167.51 338.52 167.7 338.86 167.9 339.21 168.09 339.55 168.28 339.89 168.48 340.23 168.68 340.57 168.87 340.91 169.07 341.24 169.27 341.57 169.48 341.9 169.68 342.22 169.89 342.54 170.1 342.86 170.31 343.17 170.52 343.48 170.73 343.78 170.95 344.07 171.17 344.37 171.4 344.47 171.47"/>
      <polygon class="cls-14" points="329.88 164.92 328.6 160.85 332.77 161.78 329.88 164.92"/>
      <polygon class="cls-14" points="342.53 172.64 346.69 173.59 345.43 169.51 342.53 172.64"/>
    </g>
    <text class="cls-18" transform="translate(315.06 144.39)"><tspan x="0" y="0">1977</tspan></text>
    <text class="cls-18" transform="translate(352.75 173.45)"><tspan x="0" y="0">1896</tspan></text>
    <text class="cls-18" transform="translate(276.23 172.13)"><tspan x="0" y="0">1287</tspan></text>
    <text class="cls-18" transform="translate(316.47 222.5)"><tspan x="0" y="0">0403</tspan></text>
  </g>
  <g>
    <circle class="cls-6" cx="205.84" cy="154.49" r="3.63"/>
    <circle class="cls-6" cx="182.9" cy="179.95" r="3.63"/>
    <circle class="cls-6" cx="228.78" cy="179.95" r="3.63"/>
    <circle class="cls-6" cx="205.84" cy="205.4" r="3.63"/>
    <g>
      <polyline class="cls-3" points="205.84 161.3 205.84 161.48 205.84 162.1 205.84 162.72 205.84 163.32 205.84 163.91 205.84 164.49 205.84 165.05 205.84 165.61 205.84 166.16 205.84 166.69 205.84 167.22 205.84 167.74 205.84 168.25 205.84 168.75 205.84 169.24 205.84 169.73 205.84 170.2 205.84 170.67 205.84 171.13 205.84 171.59 205.84 172.04 205.84 172.48 205.84 172.92 205.84 173.35 205.84 173.77 205.84 174.19 205.84 174.61 205.84 175.02 205.84 175.43 205.84 175.84 205.84 176.24 205.84 176.64 205.84 177.03 205.84 177.42 205.84 177.82 205.84 178.21 205.84 178.59 205.84 178.98 205.84 179.37 205.84 179.75 205.84 180.14 205.84 180.52 205.84 180.91 205.84 181.3 205.84 181.69 205.84 182.08 205.84 182.47 205.84 182.86 205.84 183.26 205.84 183.65 205.84 184.06 205.84 184.46 205.84 184.87 205.84 185.28 205.84 185.7 205.84 186.12 205.84 186.54 205.84 186.98 205.84 187.41 205.84 187.85 205.84 188.3 205.84 188.76 205.84 189.22 205.84 189.69 205.84 190.17 205.84 190.65 205.84 191.14 205.84 191.64 205.84 192.15 205.84 192.67 205.84 193.2 205.84 193.73 205.84 194.28 205.84 194.84 205.84 195.4 205.84 195.53"/>
      <polygon class="cls-13" points="203.71 194.9 205.84 198.6 207.98 194.9 203.71 194.9"/>
    </g>
    <g>
      <polyline class="cls-9" points="201.19 196.92 201.09 196.85 200.8 196.63 200.5 196.41 200.2 196.19 199.89 195.97 199.58 195.76 199.27 195.55 198.95 195.34 198.62 195.13 198.3 194.93 197.97 194.73 197.63 194.53 197.3 194.33 196.96 194.13 196.62 193.93 196.27 193.74 195.93 193.54 195.59 193.35 195.24 193.15 194.89 192.96 194.54 192.77 194.2 192.58 193.85 192.38 193.5 192.19 193.16 192 192.81 191.8 192.47 191.61 192.12 191.41 191.78 191.21 191.45 191.02 191.11 190.82 190.78 190.62 190.45 190.41 190.12 190.21 189.79 190 189.47 189.8 189.16 189.59 188.85 189.37 188.54 189.16 188.24 188.94 187.94 188.72 187.65 188.49 187.56 188.41"/>
      <polygon class="cls-14" points="202.15 194.96 203.41 199.04 199.25 198.1 202.15 194.96"/>
      <polygon class="cls-14" points="189.5 187.25 185.33 186.3 186.59 190.38 189.5 187.25"/>
    </g>
    <g>
      <polyline class="cls-9" points="224.13 188.41 224.03 188.49 223.74 188.72 223.44 188.94 223.14 189.16 222.83 189.37 222.52 189.59 222.21 189.8 221.89 190 221.56 190.21 221.24 190.41 220.91 190.62 220.57 190.82 220.24 191.02 219.9 191.21 219.56 191.41 219.21 191.61 218.87 191.8 218.53 192 218.18 192.19 217.83 192.38 217.48 192.58 217.14 192.77 216.79 192.96 216.44 193.15 216.1 193.35 215.75 193.54 215.41 193.74 215.06 193.93 214.72 194.13 214.39 194.33 214.05 194.53 213.72 194.73 213.39 194.93 213.06 195.13 212.73 195.34 212.42 195.55 212.1 195.76 211.79 195.97 211.48 196.19 211.18 196.41 210.88 196.63 210.59 196.85 210.5 196.92"/>
      <polygon class="cls-14" points="222.19 187.25 226.35 186.3 225.1 190.38 222.19 187.25"/>
      <polygon class="cls-14" points="209.54 194.96 208.27 199.04 212.44 198.1 209.54 194.96"/>
    </g>
    <g>
      <polyline class="cls-9" points="218.91 179.95 218.7 179.95 218.1 179.95 217.5 179.95 216.89 179.95 216.26 179.95 215.63 179.95 214.99 179.95 214.35 179.95 213.69 179.95 213.03 179.95 212.36 179.95 211.69 179.95 211.01 179.95 210.33 179.95 209.65 179.95 208.96 179.95 208.27 179.95 207.58 179.95 206.88 179.95 206.19 179.95 205.49 179.95 204.8 179.95 204.1 179.95 203.41 179.95 202.72 179.95 202.03 179.95 201.35 179.95 200.67 179.95 199.99 179.95 199.32 179.95 198.65 179.95 197.99 179.95 197.34 179.95 196.69 179.95 196.05 179.95 195.42 179.95 194.8 179.95 194.18 179.95 193.58 179.95 192.99 179.95 192.78 179.95"/>
      <polygon class="cls-14" points="218.29 177.81 221.98 179.95 218.29 182.08 218.29 177.81"/>
      <polygon class="cls-14" points="193.4 177.81 189.7 179.95 193.4 182.08 193.4 177.81"/>
    </g>
    <g>
      <polyline class="cls-9" points="201.19 162.96 201.09 163.04 200.8 163.26 200.5 163.49 200.2 163.7 199.89 163.92 199.58 164.13 199.27 164.34 198.95 164.55 198.62 164.76 198.3 164.96 197.97 165.16 197.63 165.36 197.3 165.56 196.96 165.76 196.62 165.96 196.27 166.15 195.93 166.35 195.59 166.54 195.24 166.74 194.89 166.93 194.54 167.12 194.2 167.32 193.85 167.51 193.5 167.7 193.16 167.9 192.81 168.09 192.47 168.28 192.12 168.48 191.78 168.68 191.45 168.87 191.11 169.07 190.78 169.27 190.45 169.48 190.12 169.68 189.79 169.89 189.47 170.1 189.16 170.31 188.85 170.52 188.54 170.73 188.24 170.95 187.94 171.17 187.65 171.4 187.56 171.47"/>
      <polygon class="cls-14" points="199.25 161.79 203.41 160.85 202.15 164.92 199.25 161.79"/>
      <polygon class="cls-14" points="186.59 169.51 185.33 173.59 189.5 172.64 186.59 169.51"/>
    </g>
    <g>
      <polyline class="cls-9" points="210.5 162.96 210.59 163.04 210.88 163.26 211.18 163.49 211.48 163.7 211.79 163.92 212.1 164.13 212.42 164.34 212.73 164.55 213.06 164.76 213.39 164.96 213.72 165.16 214.05 165.36 214.39 165.56 214.72 165.76 215.06 165.96 215.41 166.15 215.75 166.35 216.1 166.54 216.44 166.74 216.79 166.93 217.14 167.12 217.48 167.32 217.83 167.51 218.18 167.7 218.53 167.9 218.87 168.09 219.21 168.28 219.56 168.48 219.9 168.68 220.24 168.87 220.57 169.07 220.91 169.27 221.24 169.48 221.56 169.68 221.89 169.89 222.21 170.1 222.52 170.31 222.83 170.52 223.14 170.73 223.44 170.95 223.74 171.17 224.03 171.4 224.13 171.47"/>
      <polygon class="cls-14" points="209.54 164.92 208.27 160.85 212.44 161.79 209.54 164.92"/>
      <polygon class="cls-14" points="222.19 172.64 226.35 173.59 225.1 169.51 222.19 172.64"/>
    </g>
    <text class="cls-18" transform="translate(195.88 143.56)"><tspan x="0" y="0">1977</tspan></text>
    <text class="cls-18" transform="translate(233.57 172.62)"><tspan x="0" y="0">1896</tspan></text>
    <text class="cls-18" transform="translate(157.04 171.3)"><tspan x="0" y="0">1287</tspan></text>
    <text class="cls-18" transform="translate(197.29 221.67)"><tspan x="0" y="0">0403</tspan></text>
  </g>
  <g>
    <circle class="cls-6" cx="86.68" cy="154.49" r="3.63"/>
    <circle class="cls-6" cx="63.74" cy="179.95" r="3.63"/>
    <circle class="cls-6" cx="109.62" cy="179.95" r="3.63"/>
    <circle class="cls-6" cx="86.68" cy="205.4" r="3.63"/>
    <g>
      <polyline class="cls-1" points="81.25 200.04 81.25 200.03 81.02 199.77 80.78 199.52 80.54 199.27 80.29 199.02 80.03 198.78 79.76 198.54 79.49 198.31 79.21 198.08 78.93 197.85 78.63 197.63 78.34 197.41 78.04 197.19 77.73 196.97 77.42 196.76 77.1 196.55 76.78 196.34 76.46 196.13 76.13 195.93 75.8 195.73 75.47 195.53 75.13 195.33 74.79 195.13 74.45 194.93 74.11 194.74 73.77 194.54 73.42 194.35 73.08 194.15 72.73 193.96 72.38 193.77 72.03 193.58 71.69 193.38 71.34 193.19 70.99 193 70.65 192.8 70.3 192.61 69.96 192.41 69.62 192.21 69.28 192.02 68.95 191.82 68.61 191.62 68.28 191.41 67.96 191.21 67.63 191 67.31 190.8 67 190.59 66.68 190.37 66.38 190.16 66.08 189.94 65.78 189.72 65.49 189.49 65.39 189.41"/>
      <polygon class="cls-13" points="67.33 188.24 63.16 187.3 64.43 191.37 67.33 188.24"/>
    </g>
    <g>
      <polyline class="cls-1" points="66.16 185.3 66.17 185.31 66.4 185.57 66.63 185.82 66.88 186.07 67.13 186.32 67.39 186.56 67.65 186.8 67.93 187.03 68.2 187.27 68.49 187.49 68.78 187.72 69.08 187.94 69.38 188.16 69.68 188.37 70 188.59 70.31 188.8 70.63 189 70.96 189.21 71.28 189.41 71.61 189.62 71.95 189.82 72.28 190.02 72.62 190.21 72.96 190.41 73.3 190.61 73.65 190.8 73.99 191 74.34 191.19 74.69 191.38 75.03 191.58 75.38 191.77 75.73 191.96 76.08 192.15 76.42 192.35 76.77 192.54 77.11 192.74 77.45 192.93 77.79 193.13 78.13 193.33 78.47 193.53 78.8 193.73 79.13 193.93 79.46 194.13 79.78 194.34 80.1 194.55 80.42 194.76 80.73 194.97 81.04 195.19 81.34 195.41 81.63 195.63 81.93 195.85 82.03 195.92"/>
      <polygon class="cls-13" points="80.09 197.1 84.25 198.04 82.98 193.96 80.09 197.1"/>
    </g>
    <g>
      <polyline class="cls-3" points="86.68 161.3 86.68 161.48 86.68 162.1 86.68 162.72 86.68 163.32 86.68 163.91 86.68 164.49 86.68 165.05 86.68 165.61 86.68 166.16 86.68 166.69 86.68 167.22 86.68 167.74 86.68 168.25 86.68 168.75 86.68 169.24 86.68 169.73 86.68 170.2 86.68 170.67 86.68 171.13 86.68 171.59 86.68 172.04 86.68 172.48 86.68 172.92 86.68 173.35 86.68 173.77 86.68 174.19 86.68 174.61 86.68 175.02 86.68 175.43 86.68 175.84 86.68 176.24 86.68 176.64 86.68 177.03 86.68 177.42 86.68 177.82 86.68 178.21 86.68 178.59 86.68 178.98 86.68 179.37 86.68 179.75 86.68 180.14 86.68 180.52 86.68 180.91 86.68 181.3 86.68 181.69 86.68 182.08 86.68 182.47 86.68 182.86 86.68 183.26 86.68 183.65 86.68 184.06 86.68 184.46 86.68 184.87 86.68 185.28 86.68 185.7 86.68 186.12 86.68 186.54 86.68 186.98 86.68 187.41 86.68 187.85 86.68 188.3 86.68 188.76 86.68 189.22 86.68 189.69 86.68 190.17 86.68 190.65 86.68 191.14 86.68 191.64 86.68 192.15 86.68 192.67 86.68 193.2 86.68 193.73 86.68 194.28 86.68 194.84 86.68 195.4 86.68 195.53"/>
      <polygon class="cls-13" points="84.55 194.9 86.68 198.6 88.82 194.9 84.55 194.9"/>
    </g>
    <g>
      <polyline class="cls-9" points="104.97 188.41 104.87 188.49 104.57 188.72 104.28 188.94 103.98 189.16 103.67 189.37 103.36 189.59 103.04 189.8 102.72 190 102.4 190.21 102.07 190.41 101.74 190.62 101.41 190.82 101.07 191.02 100.73 191.21 100.39 191.41 100.05 191.61 99.71 191.8 99.36 192 99.02 192.19 98.67 192.38 98.32 192.58 97.97 192.77 97.63 192.96 97.28 193.15 96.93 193.35 96.59 193.54 96.24 193.74 95.9 193.93 95.56 194.13 95.22 194.33 94.89 194.53 94.55 194.73 94.22 194.93 93.9 195.13 93.57 195.34 93.25 195.55 92.94 195.76 92.62 195.97 92.32 196.19 92.02 196.41 91.72 196.63 91.43 196.85 91.34 196.93"/>
      <polygon class="cls-14" points="103.03 187.24 107.19 186.3 105.93 190.37 103.03 187.24"/>
      <polygon class="cls-14" points="90.38 194.96 89.1 199.04 93.27 198.1 90.38 194.96"/>
    </g>
    <g>
      <polyline class="cls-9" points="82.03 162.96 81.93 163.04 81.63 163.26 81.34 163.49 81.04 163.7 80.73 163.92 80.42 164.13 80.1 164.34 79.78 164.55 79.46 164.76 79.13 164.96 78.8 165.16 78.47 165.36 78.13 165.56 77.79 165.76 77.45 165.96 77.11 166.15 76.77 166.35 76.42 166.54 76.08 166.74 75.73 166.93 75.38 167.12 75.03 167.32 74.69 167.51 74.34 167.7 73.99 167.9 73.65 168.09 73.3 168.28 72.96 168.48 72.62 168.68 72.28 168.87 71.95 169.07 71.61 169.27 71.28 169.48 70.96 169.68 70.63 169.89 70.31 170.1 70 170.31 69.68 170.52 69.38 170.73 69.08 170.95 68.78 171.17 68.49 171.4 68.4 171.48"/>
      <polygon class="cls-14" points="80.09 161.78 84.25 160.85 82.98 164.92 80.09 161.78"/>
      <polygon class="cls-14" points="67.43 169.51 66.16 173.59 70.33 172.64 67.43 169.51"/>
    </g>
    <g>
      <polyline class="cls-9" points="91.34 162.96 91.43 163.04 91.72 163.26 92.02 163.49 92.32 163.7 92.62 163.92 92.94 164.13 93.25 164.34 93.57 164.55 93.9 164.76 94.22 164.96 94.55 165.16 94.89 165.36 95.22 165.56 95.56 165.76 95.9 165.96 96.24 166.15 96.59 166.35 96.93 166.54 97.28 166.74 97.63 166.93 97.97 167.12 98.32 167.32 98.67 167.51 99.02 167.7 99.36 167.9 99.71 168.09 100.05 168.28 100.39 168.48 100.73 168.68 101.07 168.87 101.41 169.07 101.74 169.27 102.07 169.48 102.4 169.68 102.72 169.89 103.04 170.1 103.36 170.31 103.67 170.52 103.98 170.73 104.28 170.95 104.57 171.17 104.87 171.4 104.97 171.47"/>
      <polygon class="cls-14" points="90.38 164.92 89.1 160.85 93.27 161.78 90.38 164.92"/>
      <polygon class="cls-14" points="103.03 172.64 107.19 173.59 105.93 169.51 103.03 172.64"/>
    </g>
    <text class="cls-18" transform="translate(76.13 143.56)"><tspan x="0" y="0">1977</tspan></text>
    <text class="cls-18" transform="translate(113.82 172.62)"><tspan x="0" y="0">1896</tspan></text>
    <text class="cls-18" transform="translate(37.29 171.3)"><tspan x="0" y="0">1287</tspan></text>
    <text class="cls-18" transform="translate(77.54 221.67)"><tspan x="0" y="0">0403</tspan></text>
  </g>
  <g>
    <g>
      <polyline class="cls-1" points="96.68 293.1 96.68 293.85 96.68 294.84 96.68 295.82 96.68 296.77 96.68 297.71 96.68 298.63 96.68 299.53 96.68 300.42 96.68 301.28 96.68 302.13 96.68 302.97 96.68 303.79 96.68 304.6 96.68 305.39 96.68 306.16 96.68 306.93 96.68 307.68 96.68 308.42 96.68 309.14 96.68 309.86 96.68 310.56 96.68 311.25 96.68 311.94 96.68 312.61 96.68 313.27 96.68 313.93 96.68 314.57 96.68 315.21 96.68 315.84 96.68 316.47 96.68 317.09 96.68 317.7 96.68 318.31 96.68 318.91 96.68 319.51 96.68 320.1 96.68 320.69 96.68 321.28 96.68 321.86 96.68 322.44 96.68 323.02 96.68 323.6 96.68 324.18 96.68 324.76 96.68 325.34 96.68 325.92 96.68 326.5 96.68 327.08 96.68 327.67 96.68 328.25 96.68 328.84 96.68 329.44 96.68 330.03 96.68 330.64 96.68 331.24 96.68 331.86 96.68 332.47 96.68 333.1 96.68 333.73 96.68 334.37 96.68 335.02 96.68 335.67 96.68 336.34 96.68 337.01 96.68 337.69 96.68 338.38 96.68 339.09 96.68 339.8 96.68 340.53 96.68 341.27 96.68 342.02 96.68 342.78 96.68 343.56 96.68 344.35 96.68 345.15 96.68 345.97 96.68 346.81 96.68 347.66 96.68 348.53 96.68 349.41 96.68 350.31 96.68 351.23 96.68 352.17 96.68 352.78"/>
      <polygon class="cls-13" points="94.55 352.15 96.68 355.85 98.82 352.15 94.55 352.15"/>
    </g>
    <g>
      <polyline class="cls-3" points="100.68 267.64 100.68 268.39 100.68 269.39 100.68 270.36 100.68 271.32 100.68 272.26 100.68 273.18 100.68 274.08 100.68 274.96 100.68 275.83 100.68 276.68 100.68 277.52 100.68 278.34 100.68 279.14 100.68 279.93 100.68 280.71 100.68 281.47 100.68 282.23 100.68 282.96 100.68 283.69 100.68 284.4 100.68 285.11 100.68 285.8 100.68 286.48 100.68 287.16 100.68 287.82 100.68 288.47 100.68 289.12 100.68 289.76 100.68 290.39 100.68 291.02 100.68 291.63 100.68 292.25 100.68 292.85 100.68 293.46 100.68 294.05 100.68 294.65 100.68 295.24 100.68 295.82 100.68 296.41 100.68 296.99 100.68 297.57 100.68 298.15 100.68 298.73 100.68 299.31 100.68 299.89 100.68 300.47 100.68 301.05 100.68 301.63 100.68 302.21 100.68 302.8 100.68 303.39 100.68 303.98 100.68 304.58 100.68 305.18 100.68 305.79 100.68 306.4 100.68 307.02 100.68 307.65 100.68 308.28 100.68 308.92 100.68 309.56 100.68 310.22 100.68 310.88 100.68 311.56 100.68 312.24 100.68 312.93 100.68 313.63 100.68 314.35 100.68 315.07 100.68 315.81 100.68 316.56 100.68 317.33 100.68 318.1 100.68 318.9 100.68 319.7 100.68 320.52 100.68 321.36 100.68 322.21 100.68 323.08 100.68 323.96 100.68 324.86 100.68 325.78 100.68 326.72 100.68 327.33"/>
      <polygon class="cls-13" points="98.55 326.7 100.68 330.4 102.82 326.7 98.55 326.7"/>
    </g>
    <circle class="cls-6" cx="96.68" cy="260.84" r="3.63"/>
    <circle class="cls-6" cx="96.68" cy="286.29" r="3.63"/>
    <circle class="cls-6" cx="55.39" cy="311.75" r="3.63"/>
    <circle class="cls-6" cx="82.91" cy="311.75" r="3.63"/>
    <circle class="cls-6" cx="110.44" cy="311.75" r="3.63"/>
    <circle class="cls-6" cx="137.97" cy="311.75" r="3.63"/>
    <circle class="cls-6" cx="96.68" cy="337.2" r="3.63"/>
    <circle class="cls-6" cx="96.68" cy="362.65" r="3.63"/>
    <g>
      <polyline class="cls-1" points="97.81 267.55 97.86 267.83 98.09 268.45 98.35 269.06 98.63 269.67 98.92 270.25 99.23 270.83 99.56 271.4 99.91 271.96 100.28 272.5 100.66 273.04 101.05 273.57 101.46 274.09 101.89 274.6 102.33 275.1 102.78 275.59 103.25 276.07 103.73 276.55 104.22 277.02 104.72 277.48 105.23 277.93 105.75 278.38 106.29 278.83 106.83 279.26 107.38 279.69 107.94 280.12 108.51 280.54 109.09 280.96 109.67 281.37 110.26 281.78 110.85 282.18 111.45 282.58 112.06 282.98 112.67 283.38 113.28 283.77 113.9 284.16 114.52 284.55 115.14 284.94 115.76 285.33 116.39 285.71 117.01 286.1 117.64 286.49 118.26 286.87 118.89 287.26 119.51 287.64 120.13 288.03 120.75 288.42 121.37 288.81 121.98 289.21 122.59 289.6 123.19 290 123.79 290.4 124.39 290.81 124.98 291.22 125.56 291.63 126.14 292.04 126.7 292.47 127.26 292.89 127.82 293.32 128.36 293.76 128.89 294.2 129.42 294.65 129.93 295.11 130.43 295.57 130.92 296.04 131.4 296.51 131.87 297 132.32 297.49 132.76 297.99 133.18 298.5 133.6 299.02 133.99 299.54 134.37 300.08 134.74 300.63 135.08 301.18 135.41 301.75 135.67 302.2"/>
      <polygon class="cls-13" points="133.42 302.49 136.84 305.04 137.33 300.8 133.42 302.49"/>
    </g>
    <g>
      <polyline class="cls-3" points="137.84 318.45 137.79 318.73 137.55 319.36 137.3 319.97 137.02 320.57 136.73 321.16 136.41 321.74 136.08 322.31 135.74 322.86 135.37 323.41 134.99 323.95 134.6 324.47 134.18 324.99 133.76 325.5 133.32 326 132.87 326.49 132.4 326.98 131.92 327.45 131.43 327.92 130.93 328.39 130.42 328.84 129.89 329.29 129.36 329.73 128.82 330.17 128.26 330.6 127.7 331.03 127.14 331.45 126.56 331.86 125.98 332.28 125.39 332.68 124.79 333.09 124.19 333.49 123.59 333.89 122.98 334.28 122.37 334.68 121.75 335.07 121.13 335.46 120.51 335.85 119.89 336.23 119.26 336.62 118.64 337.01 118.01 337.39 117.39 337.78 116.76 338.16 116.14 338.55 115.52 338.94 114.9 339.33 114.28 339.72 113.67 340.11 113.06 340.51 112.45 340.91 111.85 341.31 111.26 341.71 110.67 342.12 110.09 342.53 109.51 342.95 108.94 343.37 108.38 343.8 107.83 344.23 107.29 344.66 106.75 345.11 106.23 345.56 105.72 346.01 105.22 346.47 104.73 346.94 104.25 347.42 103.78 347.9 103.33 348.39 102.89 348.89 102.46 349.4 102.05 349.92 101.66 350.45 101.28 350.99 100.91 351.53 100.56 352.09 100.23 352.66 100 353.1"/>
      <polygon class="cls-13" points="98.32 351.7 98.81 355.94 102.24 353.39 98.32 351.7"/>
    </g>
    <g>
      <path class="cls-5" d="m90.53,266.63c-1.48,1.75-2.73,3.87-2.73,5.69,0,2.26.82,4.88,2.67,7.13"/>
      <polygon class="cls-14" points="88.61 265.66 92.7 264.45 91.7 268.6 88.61 265.66"/>
      <polygon class="cls-14" points="88.57 280.46 92.7 281.56 91.58 277.44 88.57 280.46"/>
    </g>
    <g>
      <polyline class="cls-9" points="61.37 316.59 61.6 316.78 62.05 317.14 62.52 317.49 62.99 317.83 63.48 318.18 63.98 318.51 64.48 318.85 65 319.17 65.53 319.49 66.06 319.8 66.6 320.13 67.15 320.44 67.7 320.73 68.28 321.04 68.85 321.33 69.42 321.64 70 321.94 70.59 322.23 71.17 322.51 71.77 322.81 72.36 323.1 72.96 323.38 73.57 323.68 74.17 323.96 74.77 324.24 75.38 324.53 75.98 324.81 76.59 325.09 77.19 325.37 77.8 325.66 78.4 325.94 79 326.24 79.59 326.52 80.19 326.81 80.78 327.11 81.37 327.4 81.95 327.7 82.53 327.99 83.1 328.28 83.66 328.59 84.21 328.9 84.76 329.21 85.31 329.52 85.84 329.85 86.37 330.17 86.88 330.49 87.39 330.82 87.89 331.16 88.37 331.49 88.85 331.83 89.31 332.19 89.76 332.54 90.01 332.75"/>
      <polygon class="cls-14" points="60.38 318.55 59.16 314.46 63.31 315.44 60.38 318.55"/>
      <polygon class="cls-14" points="88.07 333.89 92.22 334.88 91 330.79 88.07 333.89"/>
    </g>
    <g>
      <path class="cls-5" d="m90.87,311.75h11.59"/>
      <polygon class="cls-14" points="91.5 313.88 87.8 311.75 91.5 309.61 91.5 313.88"/>
      <polygon class="cls-14" points="101.84 313.88 105.53 311.75 101.84 309.61 101.84 313.88"/>
    </g>
    <g>
      <path class="cls-9" d="m85,303.6c2.41-3.82,5.79-6.66,8.2-10.47"/>
      <polygon class="cls-14" points="87.22 304.12 83.56 306.31 83.49 302.05 87.22 304.12"/>
      <polygon class="cls-14" points="94.71 294.67 94.64 290.41 90.98 292.6 94.71 294.67"/>
    </g>
    <g>
      <path class="cls-9" d="m129.85,313.1c-7.42,2.68-18.99,5.81-33.41,5.81s-25.99-3.14-33.41-5.81"/>
      <polygon class="cls-14" points="128.53 311.24 132.72 312.01 129.96 315.26 128.53 311.24"/>
      <polygon class="cls-14" points="64.35 311.24 60.16 312.01 62.92 315.26 64.35 311.24"/>
    </g>
    <text class="cls-18" transform="translate(82.22 253.42)"><tspan x="0" y="0">A1287</tspan></text>
    <text class="cls-18" transform="translate(103.86 282.3)"><tspan x="0" y="0">E1896</tspan></text>
    <text class="cls-18" transform="translate(82.21 378.03)"><tspan x="0" y="0">A0403</tspan></text>
    <text class="cls-18" transform="translate(63.49 346.71)"><tspan x="0" y="0">E0403</tspan></text>
    <text class="cls-18" transform="translate(142.59 308.98)"><tspan x="0" y="0">E1977</tspan></text>
    <text class="cls-18" transform="translate(40.93 332.24)"><tspan x="0" y="0">A1896</tspan></text>
    <text class="cls-18" transform="translate(57.74 301.03)"><tspan x="0" y="0">A1977</tspan></text>
    <text class="cls-18" transform="translate(102.86 327.05)"><tspan x="0" y="0">E1287</tspan></text>
  </g>
  <g>
    <circle class="cls-6" cx="326.18" cy="260.84" r="3.63"/>
    <circle class="cls-6" cx="326.18" cy="286.29" r="3.63"/>
    <circle class="cls-6" cx="326.18" cy="311.75" r="3.63"/>
    <circle class="cls-6" cx="291.77" cy="337.2" r="3.63"/>
    <circle class="cls-6" cx="326.18" cy="337.2" r="3.63"/>
    <circle class="cls-6" cx="360.59" cy="337.2" r="3.63"/>
    <circle class="cls-6" cx="303.24" cy="362.65" r="3.63"/>
    <circle class="cls-6" cx="349.12" cy="362.65" r="3.63"/>
    <g>
      <path class="cls-3" d="m321.18,262.74c-14.2,5.68-24.2,17.62-25.94,31.34-1.99,15.77,7.24,31.53,23.14,39.39"/>
      <polygon class="cls-13" points="316.93 335.14 321.18 334.74 318.72 331.26 316.93 335.14"/>
    </g>
    <g>
      <path class="cls-1" d="m325.37,265.52c-1.77,1.2-12.27,8.57-12.31,20.54-.02,9.2,6.16,15.71,9.86,18.79"/>
      <polygon class="cls-13" points="321.14 306.14 325.37 306.7 323.74 302.76 321.14 306.14"/>
    </g>
    <g>
      <polyline class="cls-1" points="326.62 267.63 326.67 268.39 326.82 269.39 326.98 270.36 327.16 271.32 327.36 272.26 327.57 273.18 327.8 274.08 328.05 274.96 328.31 275.83 328.58 276.68 328.87 277.52 329.18 278.34 329.49 279.14 329.82 279.93 330.17 280.71 330.52 281.47 330.89 282.23 331.26 282.96 331.65 283.69 332.05 284.4 332.46 285.11 332.88 285.8 333.31 286.48 333.74 287.16 334.19 287.82 334.64 288.47 335.1 289.12 335.57 289.76 336.04 290.39 336.52 291.02 337 291.63 337.49 292.25 337.99 292.85 338.49 293.46 338.99 294.05 339.5 294.65 340.01 295.24 340.53 295.82 341.04 296.41 341.56 296.99 342.08 297.57 342.6 298.15 343.12 298.73 343.64 299.31 344.16 299.89 344.69 300.47 345.2 301.05 345.72 301.63 346.24 302.21 346.75 302.8 347.26 303.39 347.77 303.98 348.27 304.58 348.78 305.18 349.27 305.79 349.76 306.4 350.25 307.02 350.73 307.65 351.2 308.28 351.67 308.92 352.13 309.56 352.58 310.22 353.02 310.88 353.46 311.56 353.89 312.24 354.31 312.93 354.71 313.63 355.11 314.35 355.5 315.07 355.88 315.81 356.25 316.56 356.6 317.33 356.94 318.1 357.27 318.9 357.59 319.7 357.89 320.52 358.18 321.36 358.46 322.21 358.72 323.08 358.96 323.96 359.19 324.86 359.41 325.78 359.61 326.72 359.74 327.36"/>
      <polygon class="cls-13" points="357.52 327.05 360.15 330.41 361.74 326.45 357.52 327.05"/>
    </g>
    <g>
      <polyline class="cls-3" points="326.72 341.47 326.73 341.48 326.98 341.78 327.24 342.09 327.51 342.38 327.79 342.66 328.08 342.94 328.36 343.21 328.67 343.49 328.97 343.76 329.29 344.03 329.61 344.28 329.94 344.54 330.27 344.8 330.62 345.05 330.96 345.3 331.3 345.54 331.65 345.78 332.02 346.02 332.37 346.26 332.74 346.49 333.11 346.73 333.48 346.96 333.85 347.19 334.23 347.41 334.6 347.65 334.99 347.87 335.36 348.1 335.75 348.32 336.14 348.55 336.51 348.77 336.9 348.99 337.29 349.22 337.67 349.45 338.05 349.67 338.43 349.89 338.81 350.12 339.19 350.36 339.56 350.58 339.94 350.81 340.31 351.04 340.68 351.27 341.04 351.51 341.4 351.75 341.76 351.98 342.11 352.23 342.47 352.47 342.81 352.72 343.15 352.97 343.48 353.23 343.8 353.48 344.13 353.74 344.44 354.01 344.55 354.1"/>
      <polygon class="cls-13" points="342.57 355.19 346.69 356.3 345.59 352.17 342.57 355.19"/>
    </g>
    <g>
      <polyline class="cls-3" points="323.88 293.09 323.85 293.85 323.75 294.84 323.64 295.82 323.52 296.77 323.39 297.71 323.25 298.63 323.09 299.53 322.93 300.42 322.76 301.28 322.57 302.13 322.38 302.97 322.18 303.79 321.97 304.6 321.75 305.39 321.52 306.16 321.28 306.93 321.04 307.68 320.79 308.42 320.53 309.14 320.26 309.86 319.99 310.56 319.71 311.25 319.43 311.94 319.13 312.61 318.84 313.27 318.54 313.93 318.23 314.57 317.92 315.21 317.6 315.84 317.28 316.47 316.96 317.09 316.63 317.7 316.3 318.31 315.97 318.91 315.63 319.51 315.29 320.1 314.95 320.69 314.61 321.28 314.27 321.86 313.92 322.44 313.58 323.02 313.23 323.6 312.88 324.18 312.53 324.76 312.19 325.34 311.84 325.92 311.49 326.5 311.15 327.08 310.8 327.67 310.46 328.25 310.12 328.84 309.78 329.44 309.45 330.03 309.11 330.64 308.78 331.24 308.46 331.86 308.13 332.47 307.81 333.1 307.5 333.73 307.18 334.37 306.88 335.02 306.58 335.67 306.28 336.34 305.99 337.01 305.7 337.69 305.43 338.38 305.15 339.09 304.89 339.8 304.63 340.53 304.38 341.27 304.13 342.02 303.9 342.78 303.67 343.56 303.45 344.35 303.24 345.15 303.03 345.97 302.84 346.81 302.66 347.66 302.48 348.53 302.32 349.41 302.17 350.31 302.02 351.23 301.89 352.17 301.82 352.79"/>
      <polygon class="cls-13" points="299.77 351.96 301.53 355.85 304.01 352.37 299.77 351.96"/>
    </g>
    <g>
      <polyline class="cls-3" points="327.47 293.09 327.51 293.85 327.6 294.84 327.71 295.82 327.83 296.77 327.96 297.71 328.11 298.63 328.26 299.53 328.42 300.42 328.6 301.28 328.78 302.13 328.97 302.97 329.18 303.79 329.39 304.6 329.61 305.39 329.84 306.16 330.07 306.93 330.32 307.68 330.57 308.42 330.83 309.14 331.09 309.86 331.37 310.56 331.64 311.25 331.93 311.94 332.22 312.61 332.52 313.27 332.82 313.93 333.13 314.57 333.44 315.21 333.75 315.84 334.07 316.47 334.4 317.09 334.72 317.7 335.05 318.31 335.39 318.91 335.72 319.51 336.06 320.1 336.4 320.69 336.74 321.28 337.09 321.86 337.43 322.44 337.78 323.02 338.13 323.6 338.47 324.18 338.82 324.76 339.17 325.34 339.52 325.92 339.86 326.5 340.21 327.08 340.55 327.67 340.89 328.25 341.23 328.84 341.57 329.44 341.91 330.03 342.24 330.64 342.57 331.24 342.9 331.86 343.22 332.47 343.54 333.1 343.86 333.73 344.17 334.37 344.48 335.02 344.78 335.67 345.07 336.34 345.37 337.01 345.65 337.69 345.93 338.38 346.2 339.09 346.47 339.8 346.73 340.53 346.98 341.27 347.22 342.02 347.46 342.78 347.69 343.56 347.91 344.35 348.12 345.15 348.32 345.97 348.51 346.81 348.7 347.66 348.87 348.53 349.04 349.41 349.19 350.31 349.33 351.23 349.46 352.17 349.54 352.79"/>
      <polygon class="cls-13" points="347.35 352.37 349.82 355.85 351.59 351.96 347.35 352.37"/>
    </g>
    <g>
      <polyline class="cls-1" points="325.54 318.52 325.53 318.73 325.4 319.38 325.26 320 325.1 320.61 324.95 321.22 324.78 321.81 324.6 322.39 324.41 322.96 324.21 323.52 324.01 324.07 323.79 324.6 323.57 325.13 323.33 325.66 323.1 326.17 322.85 326.67 322.6 327.17 322.33 327.65 322.07 328.13 321.8 328.61 321.52 329.07 321.23 329.53 320.94 329.98 320.65 330.43 320.35 330.87 320.04 331.31 319.73 331.74 319.42 332.16 319.1 332.59 318.78 333 318.46 333.42 318.14 333.83 317.8 334.24 317.47 334.63 317.14 335.04 316.8 335.44 316.47 335.84 316.13 336.24 315.8 336.63 315.45 337.03 315.11 337.43 314.77 337.81 314.44 338.21 314.09 338.6 313.75 339 313.42 339.4 313.07 339.8 312.74 340.2 312.41 340.6 312.08 341.01 311.75 341.41 311.42 341.82 311.1 342.23 310.78 342.65 310.46 343.07 310.15 343.5 309.84 343.93 309.53 344.37 309.24 344.81 308.94 345.25 308.65 345.71 308.37 346.17 308.08 346.63 307.82 347.1 307.54 347.58 307.29 348.07 307.04 348.56 306.79 349.06 306.55 349.58 306.32 350.1 306.1 350.63 305.88 351.17 305.68 351.72 305.47 352.27 305.28 352.85 305.11 353.43 305.02 353.73"/>
      <polygon class="cls-13" points="303.11 352.63 304.33 356.72 307.27 353.62 303.11 352.63"/>
    </g>
    <g>
      <polyline class="cls-3" points="325.81 318.52 325.83 318.73 325.96 319.36 326.11 319.97 326.26 320.57 326.42 321.16 326.6 321.74 326.78 322.31 326.97 322.86 327.18 323.41 327.39 323.95 327.61 324.47 327.84 324.99 328.07 325.5 328.32 326 328.57 326.49 328.83 326.98 329.09 327.45 329.37 327.92 329.64 328.39 329.93 328.84 330.22 329.29 330.52 329.73 330.82 330.17 331.13 330.6 331.44 331.03 331.75 331.45 332.07 331.86 332.4 332.28 332.72 332.68 333.05 333.09 333.39 333.49 333.72 333.89 334.06 334.28 334.4 334.68 334.74 335.07 335.09 335.46 335.43 335.85 335.78 336.23 336.13 336.62 336.47 337.01 336.82 337.39 337.17 337.78 337.52 338.16 337.86 338.55 338.21 338.94 338.55 339.33 338.89 339.72 339.23 340.11 339.57 340.51 339.91 340.91 340.24 341.31 340.57 341.71 340.9 342.12 341.22 342.53 341.54 342.95 341.86 343.37 342.17 343.8 342.48 344.23 342.78 344.66 343.07 345.11 343.37 345.56 343.65 346.01 343.93 346.47 344.2 346.94 344.47 347.42 344.73 347.9 344.98 348.39 345.22 348.89 345.46 349.4 345.69 349.92 345.91 350.45 346.12 350.99 346.32 351.53 346.51 352.09 346.7 352.66 346.77 352.89"/>
      <polygon class="cls-13" points="344.52 352.8 347.48 355.88 348.67 351.78 344.52 352.8"/>
    </g>
    <g>
      <polyline class="cls-3" points="356.31 341.1 356.1 341.39 355.59 341.69 355.06 341.98 354.51 342.27 353.94 342.55 353.35 342.84 352.74 343.11 352.11 343.37 351.46 343.64 350.8 343.9 350.12 344.16 349.42 344.41 348.71 344.66 347.98 344.9 347.24 345.14 346.49 345.38 345.72 345.63 344.94 345.86 344.15 346.08 343.35 346.31 342.54 346.53 341.73 346.76 340.9 346.98 340.07 347.2 339.23 347.42 338.38 347.64 337.53 347.85 336.67 348.06 335.81 348.27 334.95 348.49 334.08 348.7 333.22 348.92 332.35 349.12 331.48 349.33 330.61 349.54 329.74 349.76 328.88 349.97 328.01 350.17 327.15 350.39 326.3 350.61 325.45 350.82 324.6 351.04 323.76 351.26 322.93 351.48 322.1 351.69 321.28 351.92 320.47 352.14 319.67 352.37 318.88 352.6 318.11 352.83 317.34 353.07 316.59 353.31 315.84 353.55 315.12 353.79 314.41 354.04 313.71 354.3 313.03 354.56 312.36 354.81 311.71 355.08 311.09 355.35 310.48 355.62 310.15 355.78"/>
      <polygon class="cls-13" points="309.64 353.65 307.51 357.36 311.78 357.34 309.64 353.65"/>
    </g>
    <polyline class="cls-9" points="298.57 337.2 298.9 337.2 299.33 337.2 299.78 337.2 300.23 337.2 300.69 337.2 301.16 337.2 301.63 337.2 302.11 337.2 302.59 337.2 303.08 337.2 303.58 337.2 304.08 337.2 304.58 337.2 305.09 337.2 305.6 337.2 306.12 337.2 306.63 337.2 307.15 337.2 307.67 337.2 308.19 337.2 308.71 337.2 309.23 337.2 309.75 337.2 310.27 337.2 310.79 337.2 311.31 337.2 311.83 337.2 312.34 337.2 312.85 337.2 313.36 337.2 313.86 337.2 314.36 337.2 314.86 337.2 315.35 337.2 315.84 337.2 316.32 337.2 316.79 337.2 317.26 337.2 317.72 337.2 318.17 337.2 318.61 337.2 319.05 337.2 319.37 337.2"/>
    <polygon class="cls-12" points="316.92 338.62 319.37 337.2 316.92 335.78 316.92 338.62"/>
    <g>
      <polyline class="cls-9" points="292.49 328.38 292.5 328.37 292.74 327.73 292.98 327.11 293.25 326.49 293.54 325.88 293.82 325.29 294.13 324.71 294.45 324.13 294.77 323.57 295.11 323.01 295.45 322.47 295.81 321.94 296.18 321.41 296.56 320.89 296.94 320.38 297.34 319.87 297.73 319.37 298.15 318.89 298.56 318.41 298.99 317.92 299.42 317.46 299.85 316.99 300.29 316.53 300.73 316.08 301.19 315.62 301.65 315.18 302.11 314.73 302.57 314.29 303.04 313.85 303.51 313.42 303.98 312.99 304.45 312.56 304.93 312.13 305.41 311.69 305.89 311.26 306.37 310.84 306.85 310.41 307.33 309.99 307.8 309.56 308.28 309.13 308.76 308.71 309.24 308.27 309.71 307.83 310.18 307.4 310.65 306.97 311.11 306.53 311.57 306.08 312.03 305.63 312.48 305.18 312.93 304.72 313.37 304.26 313.81 303.79 314.24 303.33 314.66 302.85 315.08 302.37 315.48 301.88 315.89 301.38 316.28 300.87 316.67 300.36 317.04 299.84 317.41 299.32 317.77 298.78 318.12 298.24 318.46 297.69 318.78 297.12 319.09 296.55 319.39 295.96 319.69 295.37 319.97 294.76 320.23 294.14 320.49 293.52 320.73 292.88 320.73 292.87"/>
      <polygon class="cls-14" points="294.74 328.4 291.64 331.33 290.65 327.18 294.74 328.4"/>
      <polygon class="cls-14" points="322.57 294.07 321.58 289.92 318.48 292.85 322.57 294.07"/>
    </g>
    <g>
      <path class="cls-9" d="m353,333.25c-4.68-2.41-14.01-6.24-26.77-6.34-13.25-.1-22.97,3.88-27.74,6.34"/>
      <polygon class="cls-14" points="353.46 331.1 355.68 334.74 351.42 334.85 353.46 331.1"/>
      <polygon class="cls-14" points="298.03 331.1 295.81 334.74 300.07 334.85 298.03 331.1"/>
    </g>
    <polygon class="cls-12" points="301.03 335.78 298.57 337.2 301.03 338.62 301.03 335.78"/>
    <text class="cls-18" transform="translate(312.35 253.42)"><tspan x="0" y="0">A1287</tspan></text>
    <text class="cls-18" transform="translate(331.03 283.12)"><tspan x="0" y="0">E1287</tspan></text>
    <text class="cls-18" transform="translate(334.02 306.94)"><tspan x="0" y="0">E1896</tspan></text>
    <text class="cls-18" transform="translate(334.66 378.03)"><tspan x="0" y="0">A1977</tspan></text>
    <text class="cls-18" transform="translate(288.78 378.03)"><tspan x="0" y="0">A0403</tspan></text>
    <text class="cls-18" transform="translate(263.78 349.68)"><tspan x="0" y="0">A1896</tspan></text>
    <text class="cls-18" transform="translate(355.68 352.62)"><tspan x="0" y="0">E1977</tspan></text>
    <text class="cls-18" transform="translate(312.01 351.12)"><tspan x="0" y="0">E0403</tspan></text>
  </g>
  <g>
    <circle class="cls-6" cx="174.55" cy="260.84" r="3.63"/>
    <circle class="cls-6" cx="202.08" cy="260.84" r="3.63"/>
    <circle class="cls-6" cx="229.6" cy="260.84" r="3.63"/>
    <circle class="cls-6" cx="257.13" cy="260.84" r="3.63"/>
    <circle class="cls-6" cx="192.9" cy="311.75" r="3.63"/>
    <circle class="cls-6" cx="238.78" cy="311.75" r="3.63"/>
    <circle class="cls-6" cx="215.84" cy="337.2" r="3.63"/>
    <g>
      <polyline class="cls-1" points="213.66 330.4 213.64 329.65 213.59 328.65 213.52 327.67 213.45 326.72 213.37 325.78 213.28 324.86 213.19 323.96 213.09 323.08 212.99 322.21 212.88 321.36 212.76 320.52 212.64 319.7 212.51 318.9 212.38 318.1 212.25 317.33 212.1 316.56 211.96 315.81 211.81 315.07 211.65 314.35 211.49 313.63 211.33 312.93 211.16 312.24 210.99 311.56 210.82 310.88 210.64 310.22 210.46 309.56 210.27 308.92 210.09 308.28 209.9 307.65 209.7 307.02 209.51 306.4 209.31 305.79 209.12 305.18 208.92 304.58 208.71 303.98 208.51 303.39 208.31 302.8 208.1 302.21 207.89 301.63 207.69 301.05 207.48 300.47 207.27 299.89 207.06 299.31 206.85 298.73 206.65 298.15 206.44 297.57 206.23 296.99 206.02 296.41 205.82 295.82 205.61 295.24 205.41 294.65 205.2 294.05 205 293.46 204.8 292.85 204.6 292.25 204.41 291.63 204.21 291.02 204.02 290.39 203.83 289.76 203.65 289.12 203.46 288.47 203.28 287.82 203.1 287.16 202.93 286.48 202.76 285.8 202.59 285.11 202.43 284.4 202.27 283.69 202.11 282.96 201.96 282.23 201.81 281.47 201.67 280.71 201.53 279.93 201.4 279.14 201.28 278.34 201.15 277.52 201.04 276.68 200.93 275.83 200.82 274.96 200.73 274.08 200.63 273.18 200.55 272.26 200.47 271.32 200.43 270.7"/>
      <polygon class="cls-13" points="202.6 271.2 200.25 267.64 198.34 271.45 202.6 271.2"/>
    </g>
    <g>
      <polyline class="cls-3" points="176.28 267.42 176.38 267.83 176.75 268.45 177.15 269.06 177.58 269.67 178.04 270.25 178.53 270.83 179.04 271.4 179.58 271.96 180.15 272.5 180.74 273.04 181.35 273.57 181.99 274.09 182.65 274.6 183.34 275.1 184.04 275.59 184.77 276.07 185.51 276.55 186.28 277.02 187.06 277.48 187.85 277.93 188.67 278.38 189.5 278.83 190.34 279.26 191.2 279.69 192.07 280.12 192.96 280.54 193.85 280.96 194.76 281.37 195.67 281.78 196.6 282.18 197.53 282.58 198.47 282.98 199.42 283.38 200.38 283.77 201.33 284.16 202.3 284.55 203.26 284.94 204.23 285.33 205.21 285.71 206.18 286.1 207.15 286.49 208.12 286.87 209.1 287.26 210.07 287.64 211.03 288.03 212 288.42 212.95 288.81 213.91 289.21 214.86 289.6 215.8 290 216.73 290.4 217.66 290.81 218.57 291.22 219.48 291.63 220.37 292.04 221.26 292.47 222.13 292.89 222.99 293.32 223.83 293.76 224.66 294.2 225.48 294.65 226.27 295.11 227.05 295.57 227.82 296.04 228.56 296.51 229.29 297 229.99 297.49 230.67 297.99 231.34 298.5 231.98 299.02 232.59 299.54 233.18 300.08 233.75 300.63 234.29 301.18 234.8 301.75 235.29 302.33 235.46 302.54"/>
      <polygon class="cls-13" points="233.28 303.18 237.05 305.17 236.89 300.9 233.28 303.18"/>
    </g>
    <g>
      <polyline class="cls-1" points="197.25 267.64 197.27 268.39 197.33 269.39 197.4 270.36 197.47 271.32 197.55 272.26 197.63 273.18 197.73 274.08 197.82 274.96 197.93 275.83 198.04 276.68 198.15 277.52 198.28 278.34 198.4 279.14 198.53 279.93 198.67 280.71 198.81 281.47 198.96 282.23 199.11 282.96 199.27 283.69 199.43 284.4 199.59 285.11 199.76 285.8 199.93 286.48 200.1 287.16 200.28 287.82 200.46 288.47 200.65 289.12 200.83 289.76 201.02 290.39 201.21 291.02 201.41 291.63 201.6 292.25 201.8 292.85 202 293.46 202.2 294.05 202.41 294.65 202.61 295.24 202.82 295.82 203.02 296.41 203.23 296.99 203.44 297.57 203.65 298.15 203.85 298.73 204.06 299.31 204.27 299.89 204.48 300.47 204.69 301.05 204.89 301.63 205.1 302.21 205.31 302.8 205.51 303.39 205.71 303.98 205.92 304.58 206.12 305.18 206.31 305.79 206.51 306.4 206.7 307.02 206.9 307.65 207.09 308.28 207.27 308.92 207.46 309.56 207.64 310.22 207.82 310.88 207.99 311.56 208.16 312.24 208.33 312.93 208.49 313.63 208.65 314.35 208.81 315.07 208.96 315.81 209.1 316.56 209.25 317.33 209.38 318.1 209.51 318.9 209.64 319.7 209.76 320.52 209.88 321.36 209.99 322.21 210.09 323.08 210.19 323.96 210.28 324.86 210.37 325.78 210.45 326.72 210.5 327.33"/>
      <polygon class="cls-13" points="208.33 326.83 210.66 330.4 212.59 326.59 208.33 326.83"/>
    </g>
    <g>
      <polyline class="cls-1" points="201.82 267.64 201.81 267.83 201.76 268.45 201.7 269.06 201.64 269.67 201.58 270.25 201.51 270.83 201.44 271.4 201.36 271.96 201.28 272.5 201.19 273.04 201.1 273.57 201.01 274.09 200.92 274.6 200.82 275.1 200.72 275.59 200.62 276.07 200.51 276.55 200.4 277.02 200.29 277.48 200.18 277.93 200.06 278.38 199.94 278.83 199.82 279.26 199.7 279.69 199.57 280.12 199.45 280.54 199.32 280.96 199.19 281.37 199.06 281.78 198.93 282.18 198.79 282.58 198.66 282.98 198.52 283.38 198.39 283.77 198.25 284.16 198.11 284.55 197.97 284.94 197.84 285.33 197.7 285.71 197.56 286.1 197.42 286.49 197.28 286.87 197.14 287.26 197 287.64 196.86 288.03 196.73 288.42 196.59 288.81 196.45 289.21 196.32 289.6 196.18 290 196.05 290.4 195.92 290.81 195.79 291.22 195.66 291.63 195.53 292.04 195.4 292.47 195.28 292.89 195.16 293.32 195.04 293.76 194.92 294.2 194.8 294.65 194.69 295.11 194.58 295.57 194.47 296.04 194.36 296.51 194.26 297 194.16 297.49 194.06 297.99 193.96 298.5 193.87 299.02 193.78 299.54 193.7 300.08 193.62 300.63 193.54 301.18 193.47 301.75 193.46 301.89"/>
      <polygon class="cls-13" points="191.41 301.06 193.16 304.95 195.65 301.48 191.41 301.06"/>
    </g>
    <g>
      <polyline class="cls-1" points="229.43 267.64 229.41 268.39 229.35 269.39 229.28 270.36 229.21 271.32 229.13 272.26 229.05 273.18 228.96 274.08 228.86 274.96 228.75 275.83 228.64 276.68 228.53 277.52 228.41 278.34 228.28 279.14 228.15 279.93 228.01 280.71 227.87 281.47 227.72 282.23 227.57 282.96 227.42 283.69 227.26 284.4 227.09 285.11 226.92 285.8 226.75 286.48 226.58 287.16 226.4 287.82 226.22 288.47 226.04 289.12 225.85 289.76 225.66 290.39 225.47 291.02 225.27 291.63 225.08 292.25 224.88 292.85 224.68 293.46 224.48 294.05 224.27 294.65 224.07 295.24 223.87 295.82 223.66 296.41 223.45 296.99 223.24 297.57 223.04 298.15 222.83 298.73 222.62 299.31 222.41 299.89 222.2 300.47 221.99 301.05 221.79 301.63 221.58 302.21 221.38 302.8 221.17 303.39 220.97 303.98 220.77 304.58 220.57 305.18 220.37 305.79 220.17 306.4 219.98 307.02 219.79 307.65 219.6 308.28 219.41 308.92 219.23 309.56 219.04 310.22 218.87 310.88 218.69 311.56 218.52 312.24 218.35 312.93 218.19 313.63 218.03 314.35 217.88 315.07 217.72 315.81 217.58 316.56 217.44 317.33 217.3 318.1 217.17 318.9 217.04 319.7 216.92 320.52 216.8 321.36 216.69 322.21 216.59 323.08 216.49 323.96 216.4 324.86 216.31 325.78 216.23 326.72 216.19 327.33"/>
      <polygon class="cls-13" points="214.1 326.59 216.02 330.4 218.36 326.83 214.1 326.59"/>
    </g>
    <g>
      <polyline class="cls-3" points="258.6 267.62 258.54 268.39 258.37 269.39 258.17 270.36 257.95 271.32 257.72 272.26 257.46 273.18 257.18 274.08 256.89 274.96 256.58 275.83 256.25 276.68 255.9 277.52 255.53 278.34 255.15 279.14 254.76 279.93 254.35 280.71 253.92 281.47 253.48 282.23 253.03 282.96 252.56 283.69 252.08 284.4 251.59 285.11 251.09 285.8 250.58 286.48 250.06 287.16 249.52 287.82 248.98 288.47 248.43 289.12 247.87 289.76 247.3 290.39 246.72 291.02 246.14 291.63 245.55 292.25 244.96 292.85 244.36 293.46 243.75 294.05 243.14 294.65 242.53 295.24 241.91 295.82 241.29 296.41 240.67 296.99 240.05 297.57 239.43 298.15 238.8 298.73 238.17 299.31 237.55 299.89 236.92 300.47 236.3 301.05 235.68 301.63 235.06 302.21 234.44 302.8 233.83 303.39 233.22 303.98 232.62 304.58 232.02 305.18 231.42 305.79 230.83 306.4 230.25 307.02 229.67 307.65 229.11 308.28 228.55 308.92 227.99 309.56 227.45 310.22 226.92 310.88 226.39 311.56 225.88 312.24 225.38 312.93 224.89 313.63 224.41 314.35 223.94 315.07 223.49 315.81 223.05 316.56 222.63 317.33 222.22 318.1 221.82 318.9 221.44 319.7 221.08 320.52 220.73 321.36 220.4 322.21 220.08 323.08 219.79 323.96 219.51 324.86 219.26 325.78 219.02 326.72 218.87 327.39"/>
      <polygon class="cls-13" points="216.9 326.41 218.37 330.42 221.11 327.14 216.9 326.41"/>
    </g>
    <g>
      <path class="cls-2" d="m184.08,262.24c3.98,1.86,10.35,4.08,18.37,4.01,7.65-.07,13.74-2.19,17.62-4.01"/>
      <polygon class="cls-14" points="183.69 264.41 181.35 260.84 185.62 260.6 183.69 264.41"/>
      <polygon class="cls-14" points="220.47 264.41 222.8 260.84 218.54 260.6 220.47 264.41"/>
    </g>
    <g>
      <path class="cls-2" d="m184.07,259.41c6.34-3.15,17.27-7.39,31.36-7.47,14.5-.08,25.76,4.28,32.18,7.47"/>
      <polygon class="cls-14" points="185.61 261.1 181.35 260.84 183.71 257.28 185.61 261.1"/>
      <polygon class="cls-14" points="246.08 261.1 250.33 260.84 247.97 257.28 246.08 261.1"/>
    </g>
    <g>
      <polyline class="cls-9" points="217.71 293.86 217.91 294.07 218.2 294.38 218.5 294.68 218.81 294.98 219.12 295.26 219.44 295.56 219.76 295.84 220.09 296.12 220.41 296.4 220.75 296.68 221.09 296.95 221.43 297.22 221.77 297.49 222.13 297.75 222.47 298.02 222.82 298.29 223.18 298.54 223.53 298.81 223.89 299.07 224.24 299.33 224.6 299.59 224.96 299.84 225.32 300.11 225.68 300.36 226.04 300.62 226.4 300.89 226.75 301.14 227.1 301.39 227.46 301.66 227.81 301.93 228.16 302.18 228.5 302.45 228.86 302.72 229.2 303 229.53 303.27 229.87 303.55 230.2 303.82 230.52 304.11 230.84 304.39 231.16 304.67 231.47 304.97 231.78 305.26 232.08 305.57 232.37 305.88 232.57 306.09"/>
      <polygon class="cls-14" points="216.47 295.67 215.81 291.45 219.79 292.98 216.47 295.67"/>
      <polygon class="cls-14" points="230.49 306.97 234.47 308.5 233.81 304.29 230.49 306.97"/>
    </g>
    <g>
      <polyline class="cls-9" points="213.35 278.78 213.22 278.56 213.05 278.28 212.88 278.02 212.72 277.74 212.55 277.47 212.37 277.21 212.19 276.96 212.01 276.69 211.84 276.44 211.66 276.19 211.47 275.94 211.29 275.68 211.11 275.44 210.92 275.19 210.73 274.95 210.55 274.7 210.36 274.46 210.17 274.22 209.98 273.97 209.79 273.73 209.61 273.49 209.42 273.24 209.23 273 209.04 272.76 208.86 272.51 208.67 272.27 208.49 272.01 208.3 271.76 208.12 271.51 207.94 271.26 207.76 271.01 207.59 270.74 207.4 270.49 207.23 270.23 207.06 269.96 206.9 269.7 206.73 269.42 206.56 269.14 206.43 268.91"/>
      <polygon class="cls-14" points="214.96 277.3 214.67 281.56 211.13 279.18 214.96 277.3"/>
      <polygon class="cls-14" points="208.65 268.52 205.11 266.14 204.82 270.4 208.65 268.52"/>
    </g>
    <g>
      <polyline class="cls-9" points="196.28 304.06 196.31 303.99 196.58 303.34 196.87 302.7 197.17 302.09 197.49 301.48 197.82 300.87 198.16 300.29 198.51 299.71 198.88 299.14 199.27 298.59 199.67 298.04 200.07 297.49 200.49 296.97 200.91 296.44 201.35 295.93 201.79 295.42 202.25 294.92 202.71 294.43 203.19 293.93 203.67 293.45 204.14 292.99 204.64 292.51 205.14 292.05 205.65 291.59 206.16 291.13 206.68 290.68 207.19 290.23 207.72 289.78 208.25 289.35 208.79 288.9 209.33 288.47 209.86 288.03 210.4 287.6 210.94 287.17 211.49 286.74 212.02 286.31 212.57 285.88 213.12 285.44 213.66 285.02 214.2 284.59 214.74 284.15 215.28 283.72 215.82 283.28 216.35 282.85 216.87 282.4 217.4 281.95 217.92 281.51 218.44 281.06 218.96 280.6 219.45 280.15 219.96 279.68 220.45 279.21 220.94 278.73 221.42 278.25 221.89 277.77 222.36 277.27 222.81 276.77 223.26 276.26 223.69 275.75 224.12 275.23 224.54 274.69 224.94 274.15 225.33 273.61 225.71 273.05 226.08 272.48 226.45 271.9 226.79 271.31 227.12 270.71 227.43 270.11 227.74 269.48 228.02 268.84 228.29 268.2 228.32 268.13"/>
      <polygon class="cls-14" points="198.53 304.15 195.34 306.99 194.48 302.81 198.53 304.15"/>
      <polygon class="cls-14" points="230.11 269.39 229.26 265.21 226.06 268.04 230.11 269.39"/>
    </g>
    <g>
      <polyline class="cls-9" points="251.72 266.43 251.58 266.54 251.11 266.86 250.64 267.17 250.15 267.48 249.65 267.78 249.15 268.08 248.63 268.37 248.1 268.66 247.57 268.95 247.02 269.24 246.47 269.51 245.9 269.79 245.33 270.06 244.75 270.32 244.17 270.6 243.58 270.86 242.99 271.12 242.39 271.39 241.78 271.65 241.18 271.91 240.56 272.16 239.95 272.42 239.34 272.67 238.72 272.92 238.11 273.18 237.48 273.43 236.86 273.68 236.25 273.94 235.62 274.19 235.01 274.44 234.39 274.7 233.78 274.95 233.17 275.21 232.56 275.46 231.96 275.72 231.36 275.98 230.77 276.25 230.17 276.51 229.59 276.78 229.02 277.04 228.44 277.32 227.89 277.6 227.33 277.88 226.78 278.16 226.24 278.45 225.72 278.73 225.19 279.04 224.69 279.32 224.19 279.63 223.71 279.94 223.23 280.25 222.77 280.57 222.62 280.67"/>
      <polygon class="cls-14" points="249.87 265.15 254.08 264.47 252.57 268.46 249.87 265.15"/>
      <polygon class="cls-14" points="221.78 278.65 220.26 282.64 224.47 281.96 221.78 278.65"/>
    </g>
    <g>
      <polyline class="cls-4" points="230.16 311.75 229.6 311.75 228.94 311.75 228.27 311.75 227.6 311.75 226.9 311.75 226.2 311.75 225.5 311.75 224.79 311.75 224.06 311.75 223.33 311.75 222.58 311.75 221.84 311.75 221.09 311.75 220.34 311.75 219.58 311.75 218.82 311.75 218.06 311.75 217.29 311.75 216.52 311.75 215.75 311.75 214.98 311.75 214.21 311.75 213.44 311.75 212.67 311.75 211.91 311.75 211.15 311.75 210.39 311.75 209.64 311.75 208.89 311.75 208.15 311.75 207.4 311.75 206.67 311.75 205.95 311.75 205.23 311.75 204.53 311.75 203.83 311.75 203.14 311.75 202.45 311.75 201.79 311.75 201.14 311.75 200.57 311.75"/>
      <polygon class="cls-15" points="229.54 309.61 233.23 311.75 229.54 313.88 229.54 309.61"/>
      <polygon class="cls-15" points="201.19 309.61 197.49 311.75 201.19 313.88 201.19 309.61"/>
    </g>
    <text class="cls-18" transform="translate(200.9 351.55)"><tspan x="0" y="0">A0403</tspan></text>
    <text class="cls-18" transform="translate(230.23 325.8)"><tspan x="0" y="0">E0403</tspan></text>
    <text class="cls-18" transform="translate(170.87 325.8)"><tspan x="0" y="0">A1977</tspan></text>
    <text class="cls-18" transform="translate(222.71 286.25)"><tspan x="0" y="0">A1896</tspan></text>
    <text class="cls-18" transform="translate(144.07 253.42)"><tspan x="0" y="0">A1287</tspan></text>
    <text class="cls-18" transform="translate(258.11 253.42)"><tspan x="0" y="0">E1977</tspan></text>
    <text class="cls-18" transform="translate(217.52 249.32)"><tspan x="0" y="0">E1896</tspan></text>
    <text class="cls-18" transform="translate(180.2 250.76)"><tspan x="0" y="0">E1287</tspan></text>
    <circle class="cls-6" cx="215.84" cy="286.29" r="3.63"/>
  </g>
  <g>
    <circle class="cls-6" cx="436.45" cy="260.84" r="3.63"/>
    <circle class="cls-6" cx="413.51" cy="311.75" r="3.63"/>
    <circle class="cls-6" cx="459.39" cy="311.75" r="3.63"/>
    <circle class="cls-6" cx="436.45" cy="362.65" r="3.63"/>
    <circle class="cls-6" cx="413.51" cy="388.1" r="3.63"/>
    <circle class="cls-6" cx="459.39" cy="388.1" r="3.63"/>
    <g>
      <polyline class="cls-1" points="435.03 332.67 435.03 332.65 434.82 332.27 434.59 331.89 434.36 331.52 434.12 331.14 433.88 330.78 433.62 330.42 433.36 330.08 433.1 329.73 432.83 329.39 432.56 329.06 432.27 328.73 431.99 328.4 431.69 328.07 431.4 327.76 431.1 327.44 430.8 327.13 430.49 326.81 430.17 326.51 429.86 326.21 429.55 325.91 429.23 325.61 428.91 325.32 428.59 325.02 428.26 324.73 427.93 324.43 427.6 324.15 427.28 323.85 426.95 323.56 426.61 323.28 426.29 322.99 425.96 322.69 425.63 322.41 425.3 322.12 424.97 321.83 424.65 321.54 424.32 321.24 423.99 320.94 423.67 320.66 423.36 320.36 423.04 320.06 422.72 319.74 422.42 319.44 422.11 319.13 421.8 318.83 421.51 318.51 421.21 318.19 420.92 317.87 420.63 317.54 420.35 317.21 420.07 316.87 419.81 316.54 419.54 316.18 419.53 316.17"/>
      <polygon class="cls-13" points="421.68 315.51 417.87 313.59 418.12 317.85 421.68 315.51"/>
    </g>
    <g>
      <polyline class="cls-1" points="415.28 316.18 415.28 316.19 415.5 316.55 415.73 316.9 415.97 317.25 416.21 317.6 416.47 317.93 416.73 318.27 416.99 318.59 417.26 318.92 417.53 319.23 417.81 319.55 418.11 319.85 418.4 320.16 418.7 320.45 419 320.76 419.3 321.05 419.61 321.33 419.93 321.62 420.24 321.9 420.56 322.19 420.89 322.47 421.21 322.75 421.54 323.02 421.87 323.29 422.21 323.57 422.54 323.84 422.88 324.12 423.21 324.38 423.55 324.65 423.89 324.92 424.22 325.19 424.56 325.45 424.9 325.72 425.23 326 425.57 326.26 425.9 326.54 426.24 326.8 426.57 327.08 426.9 327.36 427.22 327.64 427.54 327.92 427.86 328.2 428.18 328.48 428.5 328.77 428.81 329.06 429.11 329.35 429.41 329.65 429.71 329.95 430 330.26 430.29 330.57 430.57 330.87 430.85 331.19 431.04 331.42"/>
      <polygon class="cls-13" points="428.92 332.2 432.82 333.92 432.37 329.68 428.92 332.2"/>
    </g>
    <g>
      <polyline class="cls-3" points="413.1 318.52 413.17 319.3 413.36 320.29 413.58 321.27 413.82 322.22 414.08 323.16 414.37 324.08 414.68 324.98 415 325.87 415.35 326.74 415.72 327.59 416.1 328.42 416.51 329.24 416.93 330.05 417.37 330.84 417.83 331.62 418.3 332.38 418.79 333.13 419.29 333.87 419.81 334.59 420.34 335.31 420.89 336.01 421.44 336.71 422.01 337.39 422.6 338.06 423.19 338.72 423.79 339.38 424.4 340.03 425.03 340.67 425.66 341.3 426.3 341.92 426.94 342.54 427.6 343.15 428.26 343.76 428.93 344.36 429.6 344.96 430.28 345.55 430.96 346.14 431.64 346.73 432.33 347.31 433.02 347.9 433.71 348.48 434.41 349.06 435.1 349.64 435.8 350.21 436.49 350.79 437.19 351.37 437.88 351.95 438.57 352.53 439.26 353.12 439.94 353.71 440.62 354.3 441.3 354.89 441.97 355.49 442.64 356.09 443.3 356.7 443.95 357.31 444.6 357.93 445.24 358.55 445.87 359.18 446.5 359.82 447.11 360.47 447.71 361.12 448.3 361.79 448.89 362.46 449.46 363.14 450.01 363.84 450.56 364.54 451.09 365.25 451.61 365.98 452.11 366.72 452.6 367.47 453.07 368.23 453.53 369.01 453.97 369.8 454.39 370.61 454.8 371.43 455.18 372.26 455.55 373.11 455.9 373.98 456.22 374.87 456.53 375.77 456.82 376.69 457.08 377.62 457.26 378.31"/>
      <polygon class="cls-13" points="455.02 378.1 457.8 381.33 459.21 377.3 455.02 378.1"/>
    </g>
    <g>
      <path class="cls-3" d="m433.35,267.64c-5.82,4.76-25.22,21.82-31.56,51.76-5.88,27.77,2.99,50.08,7.42,59.17"/>
      <polygon class="cls-13" points="407.04 378.97 410.61 381.3 410.85 377.04 407.04 378.97"/>
    </g>
    <g>
      <path class="cls-3" d="m435.29,267.64c-2.5,10.22-5.49,26.34-5.37,46.42.1,17.09,2.43,31.19,4.67,41.08"/>
      <polygon class="cls-13" points="432.42 354.97 435.29 358.12 436.59 354.06 432.42 354.97"/>
    </g>
    <g>
      <path class="cls-3" d="m438.55,267.64c4.1,2.44,30.03,18.51,36.64,51.95,5.72,28.94-6.89,51.35-12.14,59.2"/>
      <polygon class="cls-13" points="461.64 377.04 461.29 381.3 465.15 379.47 461.64 377.04"/>
    </g>
    <g>
      <polyline class="cls-3" points="434.29 293.09 434.28 293.63 434.21 295.01 434.12 296.36 434.02 297.69 433.92 298.99 433.79 300.27 433.66 301.52 433.52 302.74 433.37 303.94 433.2 305.12 433.03 306.28 432.85 307.41 432.65 308.53 432.45 309.62 432.24 310.7 432.02 311.75 431.79 312.79 431.55 313.81 431.31 314.81 431.06 315.79 430.8 316.76 430.53 317.71 430.26 318.65 429.98 319.57 429.7 320.48 429.41 321.38 429.11 322.26 428.81 323.14 428.5 324 428.19 324.85 427.88 325.69 427.56 326.53 427.23 327.35 426.9 328.17 426.57 328.98 426.24 329.78 425.91 330.58 425.57 331.37 425.23 332.16 424.88 332.94 424.54 333.72 424.19 334.49 423.85 335.27 423.5 336.04 423.15 336.81 422.81 337.58 422.46 338.36 422.11 339.13 421.77 339.9 421.42 340.68 421.08 341.46 420.73 342.24 420.39 343.03 420.05 343.82 419.72 344.62 419.38 345.42 419.05 346.23 418.73 347.04 418.4 347.87 418.08 348.7 417.77 349.54 417.46 350.4 417.15 351.26 416.85 352.13 416.55 353.02 416.26 353.91 415.98 354.82 415.7 355.75 415.43 356.69 415.16 357.64 414.9 358.61 414.65 359.59 414.4 360.59 414.17 361.61 413.94 362.65 413.72 363.7 413.51 364.77 413.31 365.87 413.11 366.98 412.93 368.12 412.76 369.27 412.59 370.45 412.44 371.66 412.3 372.88 412.16 374.13 412.04 375.41 411.93 376.71 411.84 378.03 411.83 378.23"/>
      <polygon class="cls-13" points="409.74 377.49 411.67 381.3 414 377.72 409.74 377.49"/>
    </g>
    <g>
      <polyline class="cls-3" points="437.61 293.09 437.62 293.63 437.69 295.01 437.78 296.36 437.87 297.69 437.98 298.99 438.1 300.27 438.24 301.52 438.38 302.74 438.53 303.94 438.7 305.12 438.87 306.28 439.05 307.41 439.25 308.53 439.45 309.62 439.66 310.7 439.88 311.75 440.11 312.79 440.34 313.81 440.59 314.81 440.84 315.79 441.1 316.76 441.37 317.71 441.64 318.65 441.92 319.57 442.2 320.48 442.49 321.38 442.79 322.26 443.09 323.14 443.4 324 443.71 324.85 444.02 325.69 444.34 326.53 444.67 327.35 444.99 328.17 445.33 328.98 445.66 329.78 445.99 330.58 446.33 331.37 446.67 332.16 447.02 332.94 447.36 333.72 447.71 334.49 448.05 335.27 448.4 336.04 448.75 336.81 449.09 337.58 449.44 338.36 449.79 339.13 450.13 339.9 450.48 340.68 450.82 341.46 451.17 342.24 451.51 343.03 451.85 343.82 452.18 344.62 452.51 345.42 452.85 346.23 453.17 347.04 453.5 347.87 453.82 348.7 454.13 349.54 454.44 350.4 454.75 351.26 455.05 352.13 455.35 353.02 455.64 353.91 455.92 354.82 456.2 355.75 456.47 356.69 456.74 357.64 457 358.61 457.25 359.59 457.49 360.59 457.73 361.61 457.96 362.65 458.18 363.7 458.39 364.77 458.59 365.87 458.79 366.98 458.97 368.12 459.14 369.27 459.31 370.45 459.46 371.66 459.6 372.88 459.74 374.13 459.86 375.41 459.96 376.71 460.06 378.03 460.08 378.23"/>
      <polygon class="cls-13" points="457.91 377.72 460.23 381.3 462.17 377.49 457.91 377.72"/>
    </g>
    <g>
      <polyline class="cls-3" points="458.8 318.52 458.73 319.3 458.54 320.29 458.32 321.27 458.08 322.22 457.82 323.16 457.53 324.08 457.22 324.98 456.9 325.87 456.55 326.74 456.18 327.59 455.8 328.42 455.39 329.24 454.97 330.05 454.53 330.84 454.07 331.62 453.6 332.38 453.11 333.13 452.61 333.87 452.09 334.59 451.56 335.31 451.01 336.01 450.46 336.71 449.89 337.39 449.3 338.06 448.71 338.72 448.11 339.38 447.5 340.03 446.87 340.67 446.24 341.3 445.6 341.92 444.95 342.54 444.3 343.15 443.64 343.76 442.97 344.36 442.3 344.96 441.62 345.55 440.94 346.14 440.26 346.73 439.57 347.31 438.88 347.9 438.19 348.48 437.49 349.06 436.8 349.64 436.1 350.21 435.41 350.79 434.71 351.37 434.02 351.95 433.33 352.53 432.64 353.12 431.96 353.71 431.28 354.3 430.6 354.89 429.93 355.49 429.26 356.09 428.6 356.7 427.94 357.31 427.3 357.93 426.66 358.55 426.03 359.18 425.4 359.82 424.79 360.47 424.19 361.12 423.6 361.79 423.01 362.46 422.44 363.14 421.89 363.84 421.34 364.54 420.81 365.25 420.29 365.98 419.79 366.72 419.3 367.47 418.83 368.23 418.37 369.01 417.93 369.8 417.51 370.61 417.1 371.43 416.72 372.26 416.35 373.11 416 373.98 415.68 374.87 415.37 375.77 415.08 376.69 414.82 377.62 414.65 378.31"/>
      <polygon class="cls-13" points="412.7 377.3 414.1 381.33 416.89 378.1 412.7 377.3"/>
    </g>
    <g>
      <path class="cls-9" d="m440.15,328.72c2.13-3.54,4.94-9.66,4.94-17.63s-2.81-14.08-4.94-17.62"/>
      <polygon class="cls-14" points="442.26 329.35 438.45 331.28 438.68 327.02 442.26 329.35"/>
      <polygon class="cls-14" points="442.26 292.84 438.45 290.91 438.68 295.17 442.26 292.84"/>
    </g>
    <g>
      <polyline class="cls-9" points="441.24 330.89 441.39 330.71 441.66 330.4 441.94 330.11 442.23 329.81 442.53 329.51 442.83 329.22 443.13 328.93 443.43 328.65 443.74 328.37 444.06 328.08 444.37 327.81 444.7 327.54 445.02 327.27 445.34 327 445.67 326.73 446 326.46 446.34 326.21 446.67 325.94 447.01 325.68 447.34 325.41 447.68 325.16 448.02 324.9 448.35 324.64 448.69 324.37 449.03 324.12 449.36 323.86 449.7 323.59 450.03 323.34 450.37 323.07 450.7 322.8 451.03 322.54 451.35 322.27 451.67 322 452 321.72 452.31 321.45 452.63 321.17 452.94 320.9 453.25 320.61 453.55 320.32 453.85 320.03 454.14 319.74 454.43 319.44 454.71 319.13 454.98 318.83 455.14 318.65"/>
      <polygon class="cls-14" points="443.34 331.7 439.41 333.36 439.94 329.12 443.34 331.7"/>
      <polygon class="cls-14" points="456.44 320.41 456.96 316.18 453.03 317.84 456.44 320.41"/>
    </g>
    <g>
      <path class="cls-9" d="m428.51,358.13c-3.99-1.52-10.91-5.36-15.27-14.62-4.43-9.41-3.52-18.74-2.6-23.47"/>
      <polygon class="cls-14" points="428.59 355.85 431.45 359.02 427.28 359.92 428.59 355.85"/>
      <polygon class="cls-14" points="412.61 321.14 411.37 317.06 408.46 320.18 412.61 321.14"/>
    </g>
    <g>
      <path class="cls-9" d="m461.98,321.06c.97,4.19,1.96,11.57-.49,19.56-3.64,11.87-12.34,16.77-16.93,18.58"/>
      <polygon class="cls-14" points="460.05 322.22 461.17 318.1 464.18 321.12 460.05 322.22"/>
      <polygon class="cls-14" points="444.44 356.93 441.62 360.13 445.81 360.97 444.44 356.93"/>
    </g>
    <text class="cls-18" transform="translate(420.99 253.55)"><tspan x="0" y="0">E1287</tspan></text>
    <text class="cls-18" transform="translate(438.13 281.73)"><tspan x="0" y="0">E1896</tspan></text>
    <text class="cls-18" transform="translate(458.92 305.97)"><tspan x="0" y="0">E1977</tspan></text>
    <text class="cls-18" transform="translate(384.57 306.94)"><tspan x="0" y="0">E0403</tspan></text>
    <text class="cls-18" transform="translate(467.06 340.29)"><tspan x="0" y="0">A1287</tspan></text>
    <text class="cls-18" transform="translate(421.99 378.03)"><tspan x="0" y="0">A1896</tspan></text>
    <text class="cls-18" transform="translate(399.05 402.42)"><tspan x="0" y="0">A0403</tspan></text>
    <text class="cls-18" transform="translate(444.93 402.42)"><tspan x="0" y="0">A1977</tspan></text>
    <circle class="cls-6" cx="436.45" cy="286.29" r="3.63"/>
    <circle class="cls-6" cx="436.45" cy="337.2" r="3.63"/>
  </g>
  <text class="cls-17" transform="translate(181 11.33)"><tspan x="0" y="0">16 μg/ml</tspan></text>
  <text class="cls-17" transform="translate(300.1 11.33)"><tspan x="0" y="0">64 μg/ml</tspan></text>
  <text class="cls-17" transform="translate(407.34 11.33)"><tspan x="0" y="0">256 μg/ml</tspan></text>
  <text class="cls-17" transform="translate(11.33 106.26) rotate(-90)"><tspan x="0" y="0">Anc vs</tspan><tspan class="cls-16" x="39.61" y="0"> </tspan><tspan x="42.55" y="0">Anc</tspan></text>
  <text class="cls-17" transform="translate(11.33 219.69) rotate(-90)"><tspan x="0" y="0">Evo vs Evo</tspan></text>
  <text class="cls-17" transform="translate(11.33 332.69) rotate(-90)"><tspan x="0" y="0">Anc vs Evo</tspan></text>
</svg>